ISO-10303-21;
HEADER;
/* Generated by software containing ST-Developer
 * from STEP Tools, Inc. (www.steptools.com) 
 */

FILE_DESCRIPTION(
/* description */ (''),
/* implementation_level */ '2;1');

FILE_NAME(
/* name */ 
'C:\\Users\\haiqa\\Documents\\My CAD\\Metal Raw Material\\Aluminium pr
ofile bar\\Aluminium profile 30x30x300.stp',
/* time_stamp */ '2026-04-19T17:01:13+08:00',
/* author */ ('\X2\306F3044304B308A3093\X0\'),
/* organization */ (''),
/* preprocessor_version */ 'ST-DEVELOPER v18',
/* originating_system */ 'Autodesk Inventor 2020',
/* authorisation */ '');

FILE_SCHEMA (('AUTOMOTIVE_DESIGN { 1 0 10303 214 3 1 1 }'));
ENDSEC;

DATA;
#10=MECHANICAL_DESIGN_GEOMETRIC_PRESENTATION_REPRESENTATION('',(#13),#2372);
#11=SHAPE_REPRESENTATION_RELATIONSHIP('SRR','None',#2379,#12);
#12=ADVANCED_BREP_SHAPE_REPRESENTATION('',(#14),#2371);
#13=STYLED_ITEM('',(#2388),#14);
#14=MANIFOLD_SOLID_BREP('Solid1',#1474);
#15=FACE_BOUND('',#161,.T.);
#16=FACE_BOUND('',#162,.T.);
#17=FACE_BOUND('',#163,.T.);
#18=FACE_BOUND('',#164,.T.);
#19=FACE_BOUND('',#165,.T.);
#20=FACE_BOUND('',#234,.T.);
#21=FACE_BOUND('',#235,.T.);
#22=FACE_BOUND('',#236,.T.);
#23=FACE_BOUND('',#237,.T.);
#24=FACE_BOUND('',#238,.T.);
#25=PLANE('',#1497);
#26=PLANE('',#1498);
#27=PLANE('',#1509);
#28=PLANE('',#1512);
#29=PLANE('',#1515);
#30=PLANE('',#1526);
#31=PLANE('',#1527);
#32=PLANE('',#1528);
#33=PLANE('',#1529);
#34=PLANE('',#1530);
#35=PLANE('',#1531);
#36=PLANE('',#1532);
#37=PLANE('',#1533);
#38=PLANE('',#1534);
#39=PLANE('',#1535);
#40=PLANE('',#1536);
#41=PLANE('',#1537);
#42=PLANE('',#1538);
#43=PLANE('',#1539);
#44=PLANE('',#1540);
#45=PLANE('',#1541);
#46=PLANE('',#1542);
#47=PLANE('',#1543);
#48=PLANE('',#1544);
#49=PLANE('',#1545);
#50=PLANE('',#1546);
#51=PLANE('',#1547);
#52=PLANE('',#1548);
#53=PLANE('',#1549);
#54=PLANE('',#1550);
#55=PLANE('',#1551);
#56=PLANE('',#1552);
#57=PLANE('',#1553);
#58=PLANE('',#1554);
#59=PLANE('',#1555);
#60=PLANE('',#1556);
#61=PLANE('',#1557);
#62=PLANE('',#1558);
#63=PLANE('',#1559);
#64=PLANE('',#1560);
#65=PLANE('',#1561);
#66=PLANE('',#1562);
#67=PLANE('',#1563);
#68=PLANE('',#1564);
#69=PLANE('',#1565);
#70=PLANE('',#1566);
#71=PLANE('',#1567);
#72=PLANE('',#1568);
#73=PLANE('',#1569);
#74=PLANE('',#1570);
#75=PLANE('',#1571);
#76=PLANE('',#1572);
#77=PLANE('',#1573);
#78=PLANE('',#1574);
#79=PLANE('',#1575);
#80=PLANE('',#1576);
#81=PLANE('',#1577);
#82=PLANE('',#1578);
#83=PLANE('',#1579);
#84=PLANE('',#1580);
#85=PLANE('',#1581);
#86=PLANE('',#1582);
#87=FACE_OUTER_BOUND('',#158,.T.);
#88=FACE_OUTER_BOUND('',#159,.T.);
#89=FACE_OUTER_BOUND('',#160,.T.);
#90=FACE_OUTER_BOUND('',#166,.T.);
#91=FACE_OUTER_BOUND('',#167,.T.);
#92=FACE_OUTER_BOUND('',#168,.T.);
#93=FACE_OUTER_BOUND('',#169,.T.);
#94=FACE_OUTER_BOUND('',#170,.T.);
#95=FACE_OUTER_BOUND('',#171,.T.);
#96=FACE_OUTER_BOUND('',#172,.T.);
#97=FACE_OUTER_BOUND('',#173,.T.);
#98=FACE_OUTER_BOUND('',#174,.T.);
#99=FACE_OUTER_BOUND('',#175,.T.);
#100=FACE_OUTER_BOUND('',#176,.T.);
#101=FACE_OUTER_BOUND('',#177,.T.);
#102=FACE_OUTER_BOUND('',#178,.T.);
#103=FACE_OUTER_BOUND('',#179,.T.);
#104=FACE_OUTER_BOUND('',#180,.T.);
#105=FACE_OUTER_BOUND('',#181,.T.);
#106=FACE_OUTER_BOUND('',#182,.T.);
#107=FACE_OUTER_BOUND('',#183,.T.);
#108=FACE_OUTER_BOUND('',#184,.T.);
#109=FACE_OUTER_BOUND('',#185,.T.);
#110=FACE_OUTER_BOUND('',#186,.T.);
#111=FACE_OUTER_BOUND('',#187,.T.);
#112=FACE_OUTER_BOUND('',#188,.T.);
#113=FACE_OUTER_BOUND('',#189,.T.);
#114=FACE_OUTER_BOUND('',#190,.T.);
#115=FACE_OUTER_BOUND('',#191,.T.);
#116=FACE_OUTER_BOUND('',#192,.T.);
#117=FACE_OUTER_BOUND('',#193,.T.);
#118=FACE_OUTER_BOUND('',#194,.T.);
#119=FACE_OUTER_BOUND('',#195,.T.);
#120=FACE_OUTER_BOUND('',#196,.T.);
#121=FACE_OUTER_BOUND('',#197,.T.);
#122=FACE_OUTER_BOUND('',#198,.T.);
#123=FACE_OUTER_BOUND('',#199,.T.);
#124=FACE_OUTER_BOUND('',#200,.T.);
#125=FACE_OUTER_BOUND('',#201,.T.);
#126=FACE_OUTER_BOUND('',#202,.T.);
#127=FACE_OUTER_BOUND('',#203,.T.);
#128=FACE_OUTER_BOUND('',#204,.T.);
#129=FACE_OUTER_BOUND('',#205,.T.);
#130=FACE_OUTER_BOUND('',#206,.T.);
#131=FACE_OUTER_BOUND('',#207,.T.);
#132=FACE_OUTER_BOUND('',#208,.T.);
#133=FACE_OUTER_BOUND('',#209,.T.);
#134=FACE_OUTER_BOUND('',#210,.T.);
#135=FACE_OUTER_BOUND('',#211,.T.);
#136=FACE_OUTER_BOUND('',#212,.T.);
#137=FACE_OUTER_BOUND('',#213,.T.);
#138=FACE_OUTER_BOUND('',#214,.T.);
#139=FACE_OUTER_BOUND('',#215,.T.);
#140=FACE_OUTER_BOUND('',#216,.T.);
#141=FACE_OUTER_BOUND('',#217,.T.);
#142=FACE_OUTER_BOUND('',#218,.T.);
#143=FACE_OUTER_BOUND('',#219,.T.);
#144=FACE_OUTER_BOUND('',#220,.T.);
#145=FACE_OUTER_BOUND('',#221,.T.);
#146=FACE_OUTER_BOUND('',#222,.T.);
#147=FACE_OUTER_BOUND('',#223,.T.);
#148=FACE_OUTER_BOUND('',#224,.T.);
#149=FACE_OUTER_BOUND('',#225,.T.);
#150=FACE_OUTER_BOUND('',#226,.T.);
#151=FACE_OUTER_BOUND('',#227,.T.);
#152=FACE_OUTER_BOUND('',#228,.T.);
#153=FACE_OUTER_BOUND('',#229,.T.);
#154=FACE_OUTER_BOUND('',#230,.T.);
#155=FACE_OUTER_BOUND('',#231,.T.);
#156=FACE_OUTER_BOUND('',#232,.T.);
#157=FACE_OUTER_BOUND('',#233,.T.);
#158=EDGE_LOOP('',(#980,#981,#982,#983));
#159=EDGE_LOOP('',(#984,#985,#986,#987));
#160=EDGE_LOOP('',(#988,#989,#990,#991,#992,#993,#994,#995,#996,#997,#998,
#999,#1000,#1001,#1002,#1003,#1004,#1005,#1006,#1007,#1008,#1009,#1010,
#1011,#1012,#1013,#1014,#1015,#1016,#1017,#1018,#1019,#1020,#1021,#1022,
#1023,#1024,#1025,#1026,#1027,#1028,#1029,#1030,#1031,#1032,#1033,#1034,
#1035,#1036,#1037,#1038,#1039,#1040,#1041,#1042,#1043,#1044,#1045,#1046,
#1047,#1048,#1049,#1050,#1051));
#161=EDGE_LOOP('',(#1052));
#162=EDGE_LOOP('',(#1053));
#163=EDGE_LOOP('',(#1054));
#164=EDGE_LOOP('',(#1055));
#165=EDGE_LOOP('',(#1056));
#166=EDGE_LOOP('',(#1057,#1058,#1059,#1060));
#167=EDGE_LOOP('',(#1061,#1062,#1063,#1064));
#168=EDGE_LOOP('',(#1065,#1066,#1067,#1068));
#169=EDGE_LOOP('',(#1069,#1070,#1071,#1072));
#170=EDGE_LOOP('',(#1073,#1074,#1075,#1076));
#171=EDGE_LOOP('',(#1077,#1078,#1079,#1080));
#172=EDGE_LOOP('',(#1081,#1082,#1083,#1084));
#173=EDGE_LOOP('',(#1085,#1086,#1087,#1088));
#174=EDGE_LOOP('',(#1089,#1090,#1091,#1092));
#175=EDGE_LOOP('',(#1093,#1094,#1095,#1096));
#176=EDGE_LOOP('',(#1097,#1098,#1099,#1100));
#177=EDGE_LOOP('',(#1101,#1102,#1103,#1104));
#178=EDGE_LOOP('',(#1105,#1106,#1107,#1108));
#179=EDGE_LOOP('',(#1109,#1110,#1111,#1112));
#180=EDGE_LOOP('',(#1113,#1114,#1115,#1116));
#181=EDGE_LOOP('',(#1117,#1118,#1119,#1120));
#182=EDGE_LOOP('',(#1121,#1122,#1123,#1124));
#183=EDGE_LOOP('',(#1125,#1126,#1127,#1128));
#184=EDGE_LOOP('',(#1129,#1130,#1131,#1132));
#185=EDGE_LOOP('',(#1133,#1134,#1135,#1136));
#186=EDGE_LOOP('',(#1137,#1138,#1139,#1140));
#187=EDGE_LOOP('',(#1141,#1142,#1143,#1144));
#188=EDGE_LOOP('',(#1145,#1146,#1147,#1148));
#189=EDGE_LOOP('',(#1149,#1150,#1151,#1152));
#190=EDGE_LOOP('',(#1153,#1154,#1155,#1156));
#191=EDGE_LOOP('',(#1157,#1158,#1159,#1160));
#192=EDGE_LOOP('',(#1161,#1162,#1163,#1164));
#193=EDGE_LOOP('',(#1165,#1166,#1167,#1168));
#194=EDGE_LOOP('',(#1169,#1170,#1171,#1172));
#195=EDGE_LOOP('',(#1173,#1174,#1175,#1176));
#196=EDGE_LOOP('',(#1177,#1178,#1179,#1180));
#197=EDGE_LOOP('',(#1181,#1182,#1183,#1184));
#198=EDGE_LOOP('',(#1185,#1186,#1187,#1188));
#199=EDGE_LOOP('',(#1189,#1190,#1191,#1192));
#200=EDGE_LOOP('',(#1193,#1194,#1195,#1196));
#201=EDGE_LOOP('',(#1197,#1198,#1199,#1200));
#202=EDGE_LOOP('',(#1201,#1202,#1203,#1204));
#203=EDGE_LOOP('',(#1205,#1206,#1207,#1208));
#204=EDGE_LOOP('',(#1209,#1210,#1211,#1212));
#205=EDGE_LOOP('',(#1213,#1214,#1215,#1216));
#206=EDGE_LOOP('',(#1217,#1218,#1219,#1220));
#207=EDGE_LOOP('',(#1221,#1222,#1223,#1224));
#208=EDGE_LOOP('',(#1225,#1226,#1227,#1228));
#209=EDGE_LOOP('',(#1229,#1230,#1231,#1232));
#210=EDGE_LOOP('',(#1233,#1234,#1235,#1236));
#211=EDGE_LOOP('',(#1237,#1238,#1239,#1240));
#212=EDGE_LOOP('',(#1241,#1242,#1243,#1244));
#213=EDGE_LOOP('',(#1245,#1246,#1247,#1248));
#214=EDGE_LOOP('',(#1249,#1250,#1251,#1252));
#215=EDGE_LOOP('',(#1253,#1254,#1255,#1256));
#216=EDGE_LOOP('',(#1257,#1258,#1259,#1260));
#217=EDGE_LOOP('',(#1261,#1262,#1263,#1264));
#218=EDGE_LOOP('',(#1265,#1266,#1267,#1268));
#219=EDGE_LOOP('',(#1269,#1270,#1271,#1272));
#220=EDGE_LOOP('',(#1273,#1274,#1275,#1276));
#221=EDGE_LOOP('',(#1277,#1278,#1279,#1280));
#222=EDGE_LOOP('',(#1281,#1282,#1283,#1284));
#223=EDGE_LOOP('',(#1285,#1286,#1287,#1288));
#224=EDGE_LOOP('',(#1289,#1290,#1291,#1292));
#225=EDGE_LOOP('',(#1293,#1294,#1295,#1296));
#226=EDGE_LOOP('',(#1297,#1298,#1299,#1300));
#227=EDGE_LOOP('',(#1301,#1302,#1303,#1304));
#228=EDGE_LOOP('',(#1305,#1306,#1307,#1308));
#229=EDGE_LOOP('',(#1309,#1310,#1311,#1312));
#230=EDGE_LOOP('',(#1313,#1314,#1315,#1316));
#231=EDGE_LOOP('',(#1317,#1318,#1319,#1320));
#232=EDGE_LOOP('',(#1321,#1322,#1323,#1324));
#233=EDGE_LOOP('',(#1325,#1326,#1327,#1328,#1329,#1330,#1331,#1332,#1333,
#1334,#1335,#1336,#1337,#1338,#1339,#1340,#1341,#1342,#1343,#1344,#1345,
#1346,#1347,#1348,#1349,#1350,#1351,#1352,#1353,#1354,#1355,#1356,#1357,
#1358,#1359,#1360,#1361,#1362,#1363,#1364,#1365,#1366,#1367,#1368,#1369,
#1370,#1371,#1372,#1373,#1374,#1375,#1376,#1377,#1378,#1379,#1380,#1381,
#1382,#1383,#1384,#1385,#1386,#1387,#1388));
#234=EDGE_LOOP('',(#1389));
#235=EDGE_LOOP('',(#1390));
#236=EDGE_LOOP('',(#1391));
#237=EDGE_LOOP('',(#1392));
#238=EDGE_LOOP('',(#1393));
#239=LINE('',#1958,#428);
#240=LINE('',#1961,#429);
#241=LINE('',#1964,#430);
#242=LINE('',#1966,#431);
#243=LINE('',#1967,#432);
#244=LINE('',#1970,#433);
#245=LINE('',#1972,#434);
#246=LINE('',#1974,#435);
#247=LINE('',#1976,#436);
#248=LINE('',#1978,#437);
#249=LINE('',#1980,#438);
#250=LINE('',#1982,#439);
#251=LINE('',#1984,#440);
#252=LINE('',#1986,#441);
#253=LINE('',#1988,#442);
#254=LINE('',#1990,#443);
#255=LINE('',#1992,#444);
#256=LINE('',#1994,#445);
#257=LINE('',#1996,#446);
#258=LINE('',#1998,#447);
#259=LINE('',#2002,#448);
#260=LINE('',#2004,#449);
#261=LINE('',#2006,#450);
#262=LINE('',#2008,#451);
#263=LINE('',#2010,#452);
#264=LINE('',#2012,#453);
#265=LINE('',#2014,#454);
#266=LINE('',#2016,#455);
#267=LINE('',#2018,#456);
#268=LINE('',#2020,#457);
#269=LINE('',#2022,#458);
#270=LINE('',#2024,#459);
#271=LINE('',#2026,#460);
#272=LINE('',#2028,#461);
#273=LINE('',#2030,#462);
#274=LINE('',#2034,#463);
#275=LINE('',#2036,#464);
#276=LINE('',#2038,#465);
#277=LINE('',#2040,#466);
#278=LINE('',#2042,#467);
#279=LINE('',#2044,#468);
#280=LINE('',#2046,#469);
#281=LINE('',#2048,#470);
#282=LINE('',#2050,#471);
#283=LINE('',#2052,#472);
#284=LINE('',#2054,#473);
#285=LINE('',#2056,#474);
#286=LINE('',#2058,#475);
#287=LINE('',#2060,#476);
#288=LINE('',#2062,#477);
#289=LINE('',#2066,#478);
#290=LINE('',#2068,#479);
#291=LINE('',#2070,#480);
#292=LINE('',#2072,#481);
#293=LINE('',#2074,#482);
#294=LINE('',#2076,#483);
#295=LINE('',#2078,#484);
#296=LINE('',#2080,#485);
#297=LINE('',#2082,#486);
#298=LINE('',#2084,#487);
#299=LINE('',#2086,#488);
#300=LINE('',#2088,#489);
#301=LINE('',#2090,#490);
#302=LINE('',#2091,#491);
#303=LINE('',#2106,#492);
#304=LINE('',#2107,#493);
#305=LINE('',#2110,#494);
#306=LINE('',#2111,#495);
#307=LINE('',#2116,#496);
#308=LINE('',#2117,#497);
#309=LINE('',#2120,#498);
#310=LINE('',#2121,#499);
#311=LINE('',#2126,#500);
#312=LINE('',#2127,#501);
#313=LINE('',#2130,#502);
#314=LINE('',#2131,#503);
#315=LINE('',#2134,#504);
#316=LINE('',#2138,#505);
#317=LINE('',#2142,#506);
#318=LINE('',#2146,#507);
#319=LINE('',#2150,#508);
#320=LINE('',#2154,#509);
#321=LINE('',#2155,#510);
#322=LINE('',#2158,#511);
#323=LINE('',#2159,#512);
#324=LINE('',#2162,#513);
#325=LINE('',#2163,#514);
#326=LINE('',#2166,#515);
#327=LINE('',#2167,#516);
#328=LINE('',#2170,#517);
#329=LINE('',#2171,#518);
#330=LINE('',#2174,#519);
#331=LINE('',#2175,#520);
#332=LINE('',#2178,#521);
#333=LINE('',#2179,#522);
#334=LINE('',#2182,#523);
#335=LINE('',#2183,#524);
#336=LINE('',#2186,#525);
#337=LINE('',#2187,#526);
#338=LINE('',#2190,#527);
#339=LINE('',#2191,#528);
#340=LINE('',#2194,#529);
#341=LINE('',#2195,#530);
#342=LINE('',#2198,#531);
#343=LINE('',#2199,#532);
#344=LINE('',#2202,#533);
#345=LINE('',#2203,#534);
#346=LINE('',#2206,#535);
#347=LINE('',#2207,#536);
#348=LINE('',#2209,#537);
#349=LINE('',#2212,#538);
#350=LINE('',#2213,#539);
#351=LINE('',#2216,#540);
#352=LINE('',#2217,#541);
#353=LINE('',#2220,#542);
#354=LINE('',#2221,#543);
#355=LINE('',#2224,#544);
#356=LINE('',#2225,#545);
#357=LINE('',#2228,#546);
#358=LINE('',#2229,#547);
#359=LINE('',#2232,#548);
#360=LINE('',#2233,#549);
#361=LINE('',#2236,#550);
#362=LINE('',#2237,#551);
#363=LINE('',#2240,#552);
#364=LINE('',#2241,#553);
#365=LINE('',#2244,#554);
#366=LINE('',#2245,#555);
#367=LINE('',#2248,#556);
#368=LINE('',#2249,#557);
#369=LINE('',#2252,#558);
#370=LINE('',#2253,#559);
#371=LINE('',#2256,#560);
#372=LINE('',#2257,#561);
#373=LINE('',#2259,#562);
#374=LINE('',#2262,#563);
#375=LINE('',#2263,#564);
#376=LINE('',#2266,#565);
#377=LINE('',#2267,#566);
#378=LINE('',#2270,#567);
#379=LINE('',#2271,#568);
#380=LINE('',#2274,#569);
#381=LINE('',#2275,#570);
#382=LINE('',#2278,#571);
#383=LINE('',#2279,#572);
#384=LINE('',#2282,#573);
#385=LINE('',#2283,#574);
#386=LINE('',#2286,#575);
#387=LINE('',#2287,#576);
#388=LINE('',#2290,#577);
#389=LINE('',#2291,#578);
#390=LINE('',#2294,#579);
#391=LINE('',#2295,#580);
#392=LINE('',#2298,#581);
#393=LINE('',#2299,#582);
#394=LINE('',#2302,#583);
#395=LINE('',#2303,#584);
#396=LINE('',#2306,#585);
#397=LINE('',#2307,#586);
#398=LINE('',#2310,#587);
#399=LINE('',#2311,#588);
#400=LINE('',#2313,#589);
#401=LINE('',#2316,#590);
#402=LINE('',#2317,#591);
#403=LINE('',#2320,#592);
#404=LINE('',#2321,#593);
#405=LINE('',#2324,#594);
#406=LINE('',#2325,#595);
#407=LINE('',#2328,#596);
#408=LINE('',#2329,#597);
#409=LINE('',#2332,#598);
#410=LINE('',#2333,#599);
#411=LINE('',#2336,#600);
#412=LINE('',#2337,#601);
#413=LINE('',#2340,#602);
#414=LINE('',#2341,#603);
#415=LINE('',#2344,#604);
#416=LINE('',#2345,#605);
#417=LINE('',#2348,#606);
#418=LINE('',#2349,#607);
#419=LINE('',#2352,#608);
#420=LINE('',#2353,#609);
#421=LINE('',#2356,#610);
#422=LINE('',#2357,#611);
#423=LINE('',#2360,#612);
#424=LINE('',#2361,#613);
#425=LINE('',#2364,#614);
#426=LINE('',#2365,#615);
#427=LINE('',#2367,#616);
#428=VECTOR('',#1589,10.);
#429=VECTOR('',#1592,10.);
#430=VECTOR('',#1595,10.);
#431=VECTOR('',#1596,10.);
#432=VECTOR('',#1597,10.);
#433=VECTOR('',#1600,10.);
#434=VECTOR('',#1601,10.);
#435=VECTOR('',#1602,10.);
#436=VECTOR('',#1603,10.);
#437=VECTOR('',#1604,10.);
#438=VECTOR('',#1605,10.);
#439=VECTOR('',#1606,10.);
#440=VECTOR('',#1607,10.);
#441=VECTOR('',#1608,10.);
#442=VECTOR('',#1609,10.);
#443=VECTOR('',#1610,10.);
#444=VECTOR('',#1611,10.);
#445=VECTOR('',#1612,10.);
#446=VECTOR('',#1613,10.);
#447=VECTOR('',#1614,10.);
#448=VECTOR('',#1617,10.);
#449=VECTOR('',#1618,10.);
#450=VECTOR('',#1619,10.);
#451=VECTOR('',#1620,10.);
#452=VECTOR('',#1621,10.);
#453=VECTOR('',#1622,10.);
#454=VECTOR('',#1623,10.);
#455=VECTOR('',#1624,10.);
#456=VECTOR('',#1625,10.);
#457=VECTOR('',#1626,10.);
#458=VECTOR('',#1627,10.);
#459=VECTOR('',#1628,10.);
#460=VECTOR('',#1629,10.);
#461=VECTOR('',#1630,10.);
#462=VECTOR('',#1631,10.);
#463=VECTOR('',#1634,10.);
#464=VECTOR('',#1635,10.);
#465=VECTOR('',#1636,10.);
#466=VECTOR('',#1637,10.);
#467=VECTOR('',#1638,10.);
#468=VECTOR('',#1639,10.);
#469=VECTOR('',#1640,10.);
#470=VECTOR('',#1641,10.);
#471=VECTOR('',#1642,10.);
#472=VECTOR('',#1643,10.);
#473=VECTOR('',#1644,10.);
#474=VECTOR('',#1645,10.);
#475=VECTOR('',#1646,10.);
#476=VECTOR('',#1647,10.);
#477=VECTOR('',#1648,10.);
#478=VECTOR('',#1651,10.);
#479=VECTOR('',#1652,10.);
#480=VECTOR('',#1653,10.);
#481=VECTOR('',#1654,10.);
#482=VECTOR('',#1655,10.);
#483=VECTOR('',#1656,10.);
#484=VECTOR('',#1657,10.);
#485=VECTOR('',#1658,10.);
#486=VECTOR('',#1659,10.);
#487=VECTOR('',#1660,10.);
#488=VECTOR('',#1661,10.);
#489=VECTOR('',#1662,10.);
#490=VECTOR('',#1663,10.);
#491=VECTOR('',#1664,10.);
#492=VECTOR('',#1679,10.);
#493=VECTOR('',#1680,10.);
#494=VECTOR('',#1683,10.);
#495=VECTOR('',#1684,10.);
#496=VECTOR('',#1689,10.);
#497=VECTOR('',#1690,10.);
#498=VECTOR('',#1693,10.);
#499=VECTOR('',#1694,10.);
#500=VECTOR('',#1699,10.);
#501=VECTOR('',#1700,10.);
#502=VECTOR('',#1703,10.);
#503=VECTOR('',#1704,10.);
#504=VECTOR('',#1707,3.25);
#505=VECTOR('',#1712,1.5);
#506=VECTOR('',#1717,1.5);
#507=VECTOR('',#1722,1.5);
#508=VECTOR('',#1727,1.5);
#509=VECTOR('',#1732,10.);
#510=VECTOR('',#1733,10.);
#511=VECTOR('',#1736,10.);
#512=VECTOR('',#1737,10.);
#513=VECTOR('',#1740,10.);
#514=VECTOR('',#1741,10.);
#515=VECTOR('',#1744,10.);
#516=VECTOR('',#1745,10.);
#517=VECTOR('',#1748,10.);
#518=VECTOR('',#1749,10.);
#519=VECTOR('',#1752,10.);
#520=VECTOR('',#1753,10.);
#521=VECTOR('',#1756,10.);
#522=VECTOR('',#1757,10.);
#523=VECTOR('',#1760,10.);
#524=VECTOR('',#1761,10.);
#525=VECTOR('',#1764,10.);
#526=VECTOR('',#1765,10.);
#527=VECTOR('',#1768,10.);
#528=VECTOR('',#1769,10.);
#529=VECTOR('',#1772,10.);
#530=VECTOR('',#1773,10.);
#531=VECTOR('',#1776,10.);
#532=VECTOR('',#1777,10.);
#533=VECTOR('',#1780,10.);
#534=VECTOR('',#1781,10.);
#535=VECTOR('',#1784,10.);
#536=VECTOR('',#1785,10.);
#537=VECTOR('',#1788,10.);
#538=VECTOR('',#1791,10.);
#539=VECTOR('',#1792,10.);
#540=VECTOR('',#1795,10.);
#541=VECTOR('',#1796,10.);
#542=VECTOR('',#1799,10.);
#543=VECTOR('',#1800,10.);
#544=VECTOR('',#1803,10.);
#545=VECTOR('',#1804,10.);
#546=VECTOR('',#1807,10.);
#547=VECTOR('',#1808,10.);
#548=VECTOR('',#1811,10.);
#549=VECTOR('',#1812,10.);
#550=VECTOR('',#1815,10.);
#551=VECTOR('',#1816,10.);
#552=VECTOR('',#1819,10.);
#553=VECTOR('',#1820,10.);
#554=VECTOR('',#1823,10.);
#555=VECTOR('',#1824,10.);
#556=VECTOR('',#1827,10.);
#557=VECTOR('',#1828,10.);
#558=VECTOR('',#1831,10.);
#559=VECTOR('',#1832,10.);
#560=VECTOR('',#1835,10.);
#561=VECTOR('',#1836,10.);
#562=VECTOR('',#1839,10.);
#563=VECTOR('',#1842,10.);
#564=VECTOR('',#1843,10.);
#565=VECTOR('',#1846,10.);
#566=VECTOR('',#1847,10.);
#567=VECTOR('',#1850,10.);
#568=VECTOR('',#1851,10.);
#569=VECTOR('',#1854,10.);
#570=VECTOR('',#1855,10.);
#571=VECTOR('',#1858,10.);
#572=VECTOR('',#1859,10.);
#573=VECTOR('',#1862,10.);
#574=VECTOR('',#1863,10.);
#575=VECTOR('',#1866,10.);
#576=VECTOR('',#1867,10.);
#577=VECTOR('',#1870,10.);
#578=VECTOR('',#1871,10.);
#579=VECTOR('',#1874,10.);
#580=VECTOR('',#1875,10.);
#581=VECTOR('',#1878,10.);
#582=VECTOR('',#1879,10.);
#583=VECTOR('',#1882,10.);
#584=VECTOR('',#1883,10.);
#585=VECTOR('',#1886,10.);
#586=VECTOR('',#1887,10.);
#587=VECTOR('',#1890,10.);
#588=VECTOR('',#1891,10.);
#589=VECTOR('',#1894,10.);
#590=VECTOR('',#1897,10.);
#591=VECTOR('',#1898,10.);
#592=VECTOR('',#1901,10.);
#593=VECTOR('',#1902,10.);
#594=VECTOR('',#1905,10.);
#595=VECTOR('',#1906,10.);
#596=VECTOR('',#1909,10.);
#597=VECTOR('',#1910,10.);
#598=VECTOR('',#1913,10.);
#599=VECTOR('',#1914,10.);
#600=VECTOR('',#1917,10.);
#601=VECTOR('',#1918,10.);
#602=VECTOR('',#1921,10.);
#603=VECTOR('',#1922,10.);
#604=VECTOR('',#1925,10.);
#605=VECTOR('',#1926,10.);
#606=VECTOR('',#1929,10.);
#607=VECTOR('',#1930,10.);
#608=VECTOR('',#1933,10.);
#609=VECTOR('',#1934,10.);
#610=VECTOR('',#1937,10.);
#611=VECTOR('',#1938,10.);
#612=VECTOR('',#1941,10.);
#613=VECTOR('',#1942,10.);
#614=VECTOR('',#1945,10.);
#615=VECTOR('',#1946,10.);
#616=VECTOR('',#1949,10.);
#617=CIRCLE('',#1495,0.5);
#618=CIRCLE('',#1496,0.5);
#619=CIRCLE('',#1499,0.5);
#620=CIRCLE('',#1500,0.5);
#621=CIRCLE('',#1501,0.5);
#622=CIRCLE('',#1502,3.25);
#623=CIRCLE('',#1503,1.5);
#624=CIRCLE('',#1504,1.5);
#625=CIRCLE('',#1505,1.5);
#626=CIRCLE('',#1506,1.5);
#627=CIRCLE('',#1508,0.5);
#628=CIRCLE('',#1511,0.5);
#629=CIRCLE('',#1514,0.5);
#630=CIRCLE('',#1517,3.25);
#631=CIRCLE('',#1519,1.5);
#632=CIRCLE('',#1521,1.5);
#633=CIRCLE('',#1523,1.5);
#634=CIRCLE('',#1525,1.5);
#635=VERTEX_POINT('',#1954);
#636=VERTEX_POINT('',#1955);
#637=VERTEX_POINT('',#1957);
#638=VERTEX_POINT('',#1959);
#639=VERTEX_POINT('',#1963);
#640=VERTEX_POINT('',#1965);
#641=VERTEX_POINT('',#1969);
#642=VERTEX_POINT('',#1971);
#643=VERTEX_POINT('',#1973);
#644=VERTEX_POINT('',#1975);
#645=VERTEX_POINT('',#1977);
#646=VERTEX_POINT('',#1979);
#647=VERTEX_POINT('',#1981);
#648=VERTEX_POINT('',#1983);
#649=VERTEX_POINT('',#1985);
#650=VERTEX_POINT('',#1987);
#651=VERTEX_POINT('',#1989);
#652=VERTEX_POINT('',#1991);
#653=VERTEX_POINT('',#1993);
#654=VERTEX_POINT('',#1995);
#655=VERTEX_POINT('',#1997);
#656=VERTEX_POINT('',#1999);
#657=VERTEX_POINT('',#2001);
#658=VERTEX_POINT('',#2003);
#659=VERTEX_POINT('',#2005);
#660=VERTEX_POINT('',#2007);
#661=VERTEX_POINT('',#2009);
#662=VERTEX_POINT('',#2011);
#663=VERTEX_POINT('',#2013);
#664=VERTEX_POINT('',#2015);
#665=VERTEX_POINT('',#2017);
#666=VERTEX_POINT('',#2019);
#667=VERTEX_POINT('',#2021);
#668=VERTEX_POINT('',#2023);
#669=VERTEX_POINT('',#2025);
#670=VERTEX_POINT('',#2027);
#671=VERTEX_POINT('',#2029);
#672=VERTEX_POINT('',#2031);
#673=VERTEX_POINT('',#2033);
#674=VERTEX_POINT('',#2035);
#675=VERTEX_POINT('',#2037);
#676=VERTEX_POINT('',#2039);
#677=VERTEX_POINT('',#2041);
#678=VERTEX_POINT('',#2043);
#679=VERTEX_POINT('',#2045);
#680=VERTEX_POINT('',#2047);
#681=VERTEX_POINT('',#2049);
#682=VERTEX_POINT('',#2051);
#683=VERTEX_POINT('',#2053);
#684=VERTEX_POINT('',#2055);
#685=VERTEX_POINT('',#2057);
#686=VERTEX_POINT('',#2059);
#687=VERTEX_POINT('',#2061);
#688=VERTEX_POINT('',#2063);
#689=VERTEX_POINT('',#2065);
#690=VERTEX_POINT('',#2067);
#691=VERTEX_POINT('',#2069);
#692=VERTEX_POINT('',#2071);
#693=VERTEX_POINT('',#2073);
#694=VERTEX_POINT('',#2075);
#695=VERTEX_POINT('',#2077);
#696=VERTEX_POINT('',#2079);
#697=VERTEX_POINT('',#2081);
#698=VERTEX_POINT('',#2083);
#699=VERTEX_POINT('',#2085);
#700=VERTEX_POINT('',#2087);
#701=VERTEX_POINT('',#2089);
#702=VERTEX_POINT('',#2092);
#703=VERTEX_POINT('',#2094);
#704=VERTEX_POINT('',#2096);
#705=VERTEX_POINT('',#2098);
#706=VERTEX_POINT('',#2100);
#707=VERTEX_POINT('',#2103);
#708=VERTEX_POINT('',#2104);
#709=VERTEX_POINT('',#2109);
#710=VERTEX_POINT('',#2113);
#711=VERTEX_POINT('',#2114);
#712=VERTEX_POINT('',#2119);
#713=VERTEX_POINT('',#2123);
#714=VERTEX_POINT('',#2124);
#715=VERTEX_POINT('',#2129);
#716=VERTEX_POINT('',#2133);
#717=VERTEX_POINT('',#2137);
#718=VERTEX_POINT('',#2141);
#719=VERTEX_POINT('',#2145);
#720=VERTEX_POINT('',#2149);
#721=VERTEX_POINT('',#2153);
#722=VERTEX_POINT('',#2157);
#723=VERTEX_POINT('',#2161);
#724=VERTEX_POINT('',#2165);
#725=VERTEX_POINT('',#2169);
#726=VERTEX_POINT('',#2173);
#727=VERTEX_POINT('',#2177);
#728=VERTEX_POINT('',#2181);
#729=VERTEX_POINT('',#2185);
#730=VERTEX_POINT('',#2189);
#731=VERTEX_POINT('',#2193);
#732=VERTEX_POINT('',#2197);
#733=VERTEX_POINT('',#2201);
#734=VERTEX_POINT('',#2205);
#735=VERTEX_POINT('',#2211);
#736=VERTEX_POINT('',#2215);
#737=VERTEX_POINT('',#2219);
#738=VERTEX_POINT('',#2223);
#739=VERTEX_POINT('',#2227);
#740=VERTEX_POINT('',#2231);
#741=VERTEX_POINT('',#2235);
#742=VERTEX_POINT('',#2239);
#743=VERTEX_POINT('',#2243);
#744=VERTEX_POINT('',#2247);
#745=VERTEX_POINT('',#2251);
#746=VERTEX_POINT('',#2255);
#747=VERTEX_POINT('',#2261);
#748=VERTEX_POINT('',#2265);
#749=VERTEX_POINT('',#2269);
#750=VERTEX_POINT('',#2273);
#751=VERTEX_POINT('',#2277);
#752=VERTEX_POINT('',#2281);
#753=VERTEX_POINT('',#2285);
#754=VERTEX_POINT('',#2289);
#755=VERTEX_POINT('',#2293);
#756=VERTEX_POINT('',#2297);
#757=VERTEX_POINT('',#2301);
#758=VERTEX_POINT('',#2305);
#759=VERTEX_POINT('',#2309);
#760=VERTEX_POINT('',#2315);
#761=VERTEX_POINT('',#2319);
#762=VERTEX_POINT('',#2323);
#763=VERTEX_POINT('',#2327);
#764=VERTEX_POINT('',#2331);
#765=VERTEX_POINT('',#2335);
#766=VERTEX_POINT('',#2339);
#767=VERTEX_POINT('',#2343);
#768=VERTEX_POINT('',#2347);
#769=VERTEX_POINT('',#2351);
#770=VERTEX_POINT('',#2355);
#771=VERTEX_POINT('',#2359);
#772=VERTEX_POINT('',#2363);
#773=EDGE_CURVE('',#635,#636,#617,.T.);
#774=EDGE_CURVE('',#636,#637,#239,.T.);
#775=EDGE_CURVE('',#637,#638,#618,.T.);
#776=EDGE_CURVE('',#638,#635,#240,.T.);
#777=EDGE_CURVE('',#638,#639,#241,.T.);
#778=EDGE_CURVE('',#639,#640,#242,.T.);
#779=EDGE_CURVE('',#635,#640,#243,.T.);
#780=EDGE_CURVE('',#641,#637,#244,.T.);
#781=EDGE_CURVE('',#642,#641,#245,.T.);
#782=EDGE_CURVE('',#643,#642,#246,.T.);
#783=EDGE_CURVE('',#644,#643,#247,.T.);
#784=EDGE_CURVE('',#645,#644,#248,.T.);
#785=EDGE_CURVE('',#646,#645,#249,.T.);
#786=EDGE_CURVE('',#647,#646,#250,.T.);
#787=EDGE_CURVE('',#648,#647,#251,.T.);
#788=EDGE_CURVE('',#649,#648,#252,.T.);
#789=EDGE_CURVE('',#650,#649,#253,.T.);
#790=EDGE_CURVE('',#651,#650,#254,.T.);
#791=EDGE_CURVE('',#652,#651,#255,.T.);
#792=EDGE_CURVE('',#653,#652,#256,.T.);
#793=EDGE_CURVE('',#654,#653,#257,.T.);
#794=EDGE_CURVE('',#655,#654,#258,.T.);
#795=EDGE_CURVE('',#656,#655,#619,.T.);
#796=EDGE_CURVE('',#657,#656,#259,.T.);
#797=EDGE_CURVE('',#658,#657,#260,.T.);
#798=EDGE_CURVE('',#659,#658,#261,.T.);
#799=EDGE_CURVE('',#660,#659,#262,.T.);
#800=EDGE_CURVE('',#661,#660,#263,.T.);
#801=EDGE_CURVE('',#662,#661,#264,.T.);
#802=EDGE_CURVE('',#663,#662,#265,.T.);
#803=EDGE_CURVE('',#664,#663,#266,.T.);
#804=EDGE_CURVE('',#665,#664,#267,.T.);
#805=EDGE_CURVE('',#666,#665,#268,.T.);
#806=EDGE_CURVE('',#667,#666,#269,.T.);
#807=EDGE_CURVE('',#668,#667,#270,.T.);
#808=EDGE_CURVE('',#669,#668,#271,.T.);
#809=EDGE_CURVE('',#670,#669,#272,.T.);
#810=EDGE_CURVE('',#671,#670,#273,.T.);
#811=EDGE_CURVE('',#672,#671,#620,.T.);
#812=EDGE_CURVE('',#673,#672,#274,.T.);
#813=EDGE_CURVE('',#674,#673,#275,.T.);
#814=EDGE_CURVE('',#675,#674,#276,.T.);
#815=EDGE_CURVE('',#676,#675,#277,.T.);
#816=EDGE_CURVE('',#677,#676,#278,.T.);
#817=EDGE_CURVE('',#678,#677,#279,.T.);
#818=EDGE_CURVE('',#679,#678,#280,.T.);
#819=EDGE_CURVE('',#680,#679,#281,.T.);
#820=EDGE_CURVE('',#681,#680,#282,.T.);
#821=EDGE_CURVE('',#682,#681,#283,.T.);
#822=EDGE_CURVE('',#683,#682,#284,.T.);
#823=EDGE_CURVE('',#684,#683,#285,.T.);
#824=EDGE_CURVE('',#685,#684,#286,.T.);
#825=EDGE_CURVE('',#686,#685,#287,.T.);
#826=EDGE_CURVE('',#687,#686,#288,.T.);
#827=EDGE_CURVE('',#688,#687,#621,.T.);
#828=EDGE_CURVE('',#689,#688,#289,.T.);
#829=EDGE_CURVE('',#690,#689,#290,.T.);
#830=EDGE_CURVE('',#691,#690,#291,.T.);
#831=EDGE_CURVE('',#692,#691,#292,.T.);
#832=EDGE_CURVE('',#693,#692,#293,.T.);
#833=EDGE_CURVE('',#694,#693,#294,.T.);
#834=EDGE_CURVE('',#695,#694,#295,.T.);
#835=EDGE_CURVE('',#696,#695,#296,.T.);
#836=EDGE_CURVE('',#697,#696,#297,.T.);
#837=EDGE_CURVE('',#698,#697,#298,.T.);
#838=EDGE_CURVE('',#699,#698,#299,.T.);
#839=EDGE_CURVE('',#700,#699,#300,.T.);
#840=EDGE_CURVE('',#701,#700,#301,.T.);
#841=EDGE_CURVE('',#639,#701,#302,.T.);
#842=EDGE_CURVE('',#702,#702,#622,.T.);
#843=EDGE_CURVE('',#703,#703,#623,.T.);
#844=EDGE_CURVE('',#704,#704,#624,.T.);
#845=EDGE_CURVE('',#705,#705,#625,.T.);
#846=EDGE_CURVE('',#706,#706,#626,.T.);
#847=EDGE_CURVE('',#707,#708,#627,.T.);
#848=EDGE_CURVE('',#708,#688,#303,.T.);
#849=EDGE_CURVE('',#687,#707,#304,.T.);
#850=EDGE_CURVE('',#686,#709,#305,.T.);
#851=EDGE_CURVE('',#707,#709,#306,.T.);
#852=EDGE_CURVE('',#710,#711,#628,.T.);
#853=EDGE_CURVE('',#711,#656,#307,.T.);
#854=EDGE_CURVE('',#655,#710,#308,.T.);
#855=EDGE_CURVE('',#654,#712,#309,.T.);
#856=EDGE_CURVE('',#710,#712,#310,.T.);
#857=EDGE_CURVE('',#713,#714,#629,.T.);
#858=EDGE_CURVE('',#714,#672,#311,.T.);
#859=EDGE_CURVE('',#671,#713,#312,.T.);
#860=EDGE_CURVE('',#715,#714,#313,.T.);
#861=EDGE_CURVE('',#673,#715,#314,.T.);
#862=EDGE_CURVE('',#702,#716,#315,.T.);
#863=EDGE_CURVE('',#716,#716,#630,.T.);
#864=EDGE_CURVE('',#703,#717,#316,.T.);
#865=EDGE_CURVE('',#717,#717,#631,.T.);
#866=EDGE_CURVE('',#704,#718,#317,.T.);
#867=EDGE_CURVE('',#718,#718,#632,.T.);
#868=EDGE_CURVE('',#705,#719,#318,.T.);
#869=EDGE_CURVE('',#719,#719,#633,.T.);
#870=EDGE_CURVE('',#706,#720,#319,.T.);
#871=EDGE_CURVE('',#720,#720,#634,.T.);
#872=EDGE_CURVE('',#721,#711,#320,.T.);
#873=EDGE_CURVE('',#657,#721,#321,.T.);
#874=EDGE_CURVE('',#722,#721,#322,.T.);
#875=EDGE_CURVE('',#658,#722,#323,.T.);
#876=EDGE_CURVE('',#723,#722,#324,.T.);
#877=EDGE_CURVE('',#659,#723,#325,.T.);
#878=EDGE_CURVE('',#724,#723,#326,.T.);
#879=EDGE_CURVE('',#660,#724,#327,.T.);
#880=EDGE_CURVE('',#725,#724,#328,.T.);
#881=EDGE_CURVE('',#661,#725,#329,.T.);
#882=EDGE_CURVE('',#726,#725,#330,.T.);
#883=EDGE_CURVE('',#662,#726,#331,.T.);
#884=EDGE_CURVE('',#727,#726,#332,.T.);
#885=EDGE_CURVE('',#663,#727,#333,.T.);
#886=EDGE_CURVE('',#728,#727,#334,.T.);
#887=EDGE_CURVE('',#664,#728,#335,.T.);
#888=EDGE_CURVE('',#729,#728,#336,.T.);
#889=EDGE_CURVE('',#665,#729,#337,.T.);
#890=EDGE_CURVE('',#730,#729,#338,.T.);
#891=EDGE_CURVE('',#666,#730,#339,.T.);
#892=EDGE_CURVE('',#731,#730,#340,.T.);
#893=EDGE_CURVE('',#667,#731,#341,.T.);
#894=EDGE_CURVE('',#732,#731,#342,.T.);
#895=EDGE_CURVE('',#668,#732,#343,.T.);
#896=EDGE_CURVE('',#733,#732,#344,.T.);
#897=EDGE_CURVE('',#669,#733,#345,.T.);
#898=EDGE_CURVE('',#734,#733,#346,.T.);
#899=EDGE_CURVE('',#670,#734,#347,.T.);
#900=EDGE_CURVE('',#713,#734,#348,.T.);
#901=EDGE_CURVE('',#735,#715,#349,.T.);
#902=EDGE_CURVE('',#674,#735,#350,.T.);
#903=EDGE_CURVE('',#736,#735,#351,.T.);
#904=EDGE_CURVE('',#675,#736,#352,.T.);
#905=EDGE_CURVE('',#737,#736,#353,.T.);
#906=EDGE_CURVE('',#676,#737,#354,.T.);
#907=EDGE_CURVE('',#738,#737,#355,.T.);
#908=EDGE_CURVE('',#677,#738,#356,.T.);
#909=EDGE_CURVE('',#739,#738,#357,.T.);
#910=EDGE_CURVE('',#678,#739,#358,.T.);
#911=EDGE_CURVE('',#740,#739,#359,.T.);
#912=EDGE_CURVE('',#679,#740,#360,.T.);
#913=EDGE_CURVE('',#741,#740,#361,.T.);
#914=EDGE_CURVE('',#680,#741,#362,.T.);
#915=EDGE_CURVE('',#742,#741,#363,.T.);
#916=EDGE_CURVE('',#681,#742,#364,.T.);
#917=EDGE_CURVE('',#743,#742,#365,.T.);
#918=EDGE_CURVE('',#682,#743,#366,.T.);
#919=EDGE_CURVE('',#744,#743,#367,.T.);
#920=EDGE_CURVE('',#683,#744,#368,.T.);
#921=EDGE_CURVE('',#745,#744,#369,.T.);
#922=EDGE_CURVE('',#684,#745,#370,.T.);
#923=EDGE_CURVE('',#746,#745,#371,.T.);
#924=EDGE_CURVE('',#685,#746,#372,.T.);
#925=EDGE_CURVE('',#709,#746,#373,.T.);
#926=EDGE_CURVE('',#747,#708,#374,.T.);
#927=EDGE_CURVE('',#689,#747,#375,.T.);
#928=EDGE_CURVE('',#748,#747,#376,.T.);
#929=EDGE_CURVE('',#690,#748,#377,.T.);
#930=EDGE_CURVE('',#749,#748,#378,.T.);
#931=EDGE_CURVE('',#691,#749,#379,.T.);
#932=EDGE_CURVE('',#750,#749,#380,.T.);
#933=EDGE_CURVE('',#692,#750,#381,.T.);
#934=EDGE_CURVE('',#751,#750,#382,.T.);
#935=EDGE_CURVE('',#693,#751,#383,.T.);
#936=EDGE_CURVE('',#752,#751,#384,.T.);
#937=EDGE_CURVE('',#694,#752,#385,.T.);
#938=EDGE_CURVE('',#753,#752,#386,.T.);
#939=EDGE_CURVE('',#695,#753,#387,.T.);
#940=EDGE_CURVE('',#754,#753,#388,.T.);
#941=EDGE_CURVE('',#696,#754,#389,.T.);
#942=EDGE_CURVE('',#755,#754,#390,.T.);
#943=EDGE_CURVE('',#697,#755,#391,.T.);
#944=EDGE_CURVE('',#756,#755,#392,.T.);
#945=EDGE_CURVE('',#698,#756,#393,.T.);
#946=EDGE_CURVE('',#757,#756,#394,.T.);
#947=EDGE_CURVE('',#699,#757,#395,.T.);
#948=EDGE_CURVE('',#758,#757,#396,.T.);
#949=EDGE_CURVE('',#700,#758,#397,.T.);
#950=EDGE_CURVE('',#759,#758,#398,.T.);
#951=EDGE_CURVE('',#701,#759,#399,.T.);
#952=EDGE_CURVE('',#640,#759,#400,.T.);
#953=EDGE_CURVE('',#760,#636,#401,.T.);
#954=EDGE_CURVE('',#641,#760,#402,.T.);
#955=EDGE_CURVE('',#761,#760,#403,.T.);
#956=EDGE_CURVE('',#642,#761,#404,.T.);
#957=EDGE_CURVE('',#762,#761,#405,.T.);
#958=EDGE_CURVE('',#643,#762,#406,.T.);
#959=EDGE_CURVE('',#763,#762,#407,.T.);
#960=EDGE_CURVE('',#644,#763,#408,.T.);
#961=EDGE_CURVE('',#764,#763,#409,.T.);
#962=EDGE_CURVE('',#645,#764,#410,.T.);
#963=EDGE_CURVE('',#765,#764,#411,.T.);
#964=EDGE_CURVE('',#646,#765,#412,.T.);
#965=EDGE_CURVE('',#766,#765,#413,.T.);
#966=EDGE_CURVE('',#647,#766,#414,.T.);
#967=EDGE_CURVE('',#767,#766,#415,.T.);
#968=EDGE_CURVE('',#648,#767,#416,.T.);
#969=EDGE_CURVE('',#768,#767,#417,.T.);
#970=EDGE_CURVE('',#649,#768,#418,.T.);
#971=EDGE_CURVE('',#769,#768,#419,.T.);
#972=EDGE_CURVE('',#650,#769,#420,.T.);
#973=EDGE_CURVE('',#770,#769,#421,.T.);
#974=EDGE_CURVE('',#651,#770,#422,.T.);
#975=EDGE_CURVE('',#771,#770,#423,.T.);
#976=EDGE_CURVE('',#652,#771,#424,.T.);
#977=EDGE_CURVE('',#772,#771,#425,.T.);
#978=EDGE_CURVE('',#653,#772,#426,.T.);
#979=EDGE_CURVE('',#712,#772,#427,.T.);
#980=ORIENTED_EDGE('',*,*,#773,.T.);
#981=ORIENTED_EDGE('',*,*,#774,.T.);
#982=ORIENTED_EDGE('',*,*,#775,.T.);
#983=ORIENTED_EDGE('',*,*,#776,.T.);
#984=ORIENTED_EDGE('',*,*,#776,.F.);
#985=ORIENTED_EDGE('',*,*,#777,.T.);
#986=ORIENTED_EDGE('',*,*,#778,.T.);
#987=ORIENTED_EDGE('',*,*,#779,.F.);
#988=ORIENTED_EDGE('',*,*,#775,.F.);
#989=ORIENTED_EDGE('',*,*,#780,.F.);
#990=ORIENTED_EDGE('',*,*,#781,.F.);
#991=ORIENTED_EDGE('',*,*,#782,.F.);
#992=ORIENTED_EDGE('',*,*,#783,.F.);
#993=ORIENTED_EDGE('',*,*,#784,.F.);
#994=ORIENTED_EDGE('',*,*,#785,.F.);
#995=ORIENTED_EDGE('',*,*,#786,.F.);
#996=ORIENTED_EDGE('',*,*,#787,.F.);
#997=ORIENTED_EDGE('',*,*,#788,.F.);
#998=ORIENTED_EDGE('',*,*,#789,.F.);
#999=ORIENTED_EDGE('',*,*,#790,.F.);
#1000=ORIENTED_EDGE('',*,*,#791,.F.);
#1001=ORIENTED_EDGE('',*,*,#792,.F.);
#1002=ORIENTED_EDGE('',*,*,#793,.F.);
#1003=ORIENTED_EDGE('',*,*,#794,.F.);
#1004=ORIENTED_EDGE('',*,*,#795,.F.);
#1005=ORIENTED_EDGE('',*,*,#796,.F.);
#1006=ORIENTED_EDGE('',*,*,#797,.F.);
#1007=ORIENTED_EDGE('',*,*,#798,.F.);
#1008=ORIENTED_EDGE('',*,*,#799,.F.);
#1009=ORIENTED_EDGE('',*,*,#800,.F.);
#1010=ORIENTED_EDGE('',*,*,#801,.F.);
#1011=ORIENTED_EDGE('',*,*,#802,.F.);
#1012=ORIENTED_EDGE('',*,*,#803,.F.);
#1013=ORIENTED_EDGE('',*,*,#804,.F.);
#1014=ORIENTED_EDGE('',*,*,#805,.F.);
#1015=ORIENTED_EDGE('',*,*,#806,.F.);
#1016=ORIENTED_EDGE('',*,*,#807,.F.);
#1017=ORIENTED_EDGE('',*,*,#808,.F.);
#1018=ORIENTED_EDGE('',*,*,#809,.F.);
#1019=ORIENTED_EDGE('',*,*,#810,.F.);
#1020=ORIENTED_EDGE('',*,*,#811,.F.);
#1021=ORIENTED_EDGE('',*,*,#812,.F.);
#1022=ORIENTED_EDGE('',*,*,#813,.F.);
#1023=ORIENTED_EDGE('',*,*,#814,.F.);
#1024=ORIENTED_EDGE('',*,*,#815,.F.);
#1025=ORIENTED_EDGE('',*,*,#816,.F.);
#1026=ORIENTED_EDGE('',*,*,#817,.F.);
#1027=ORIENTED_EDGE('',*,*,#818,.F.);
#1028=ORIENTED_EDGE('',*,*,#819,.F.);
#1029=ORIENTED_EDGE('',*,*,#820,.F.);
#1030=ORIENTED_EDGE('',*,*,#821,.F.);
#1031=ORIENTED_EDGE('',*,*,#822,.F.);
#1032=ORIENTED_EDGE('',*,*,#823,.F.);
#1033=ORIENTED_EDGE('',*,*,#824,.F.);
#1034=ORIENTED_EDGE('',*,*,#825,.F.);
#1035=ORIENTED_EDGE('',*,*,#826,.F.);
#1036=ORIENTED_EDGE('',*,*,#827,.F.);
#1037=ORIENTED_EDGE('',*,*,#828,.F.);
#1038=ORIENTED_EDGE('',*,*,#829,.F.);
#1039=ORIENTED_EDGE('',*,*,#830,.F.);
#1040=ORIENTED_EDGE('',*,*,#831,.F.);
#1041=ORIENTED_EDGE('',*,*,#832,.F.);
#1042=ORIENTED_EDGE('',*,*,#833,.F.);
#1043=ORIENTED_EDGE('',*,*,#834,.F.);
#1044=ORIENTED_EDGE('',*,*,#835,.F.);
#1045=ORIENTED_EDGE('',*,*,#836,.F.);
#1046=ORIENTED_EDGE('',*,*,#837,.F.);
#1047=ORIENTED_EDGE('',*,*,#838,.F.);
#1048=ORIENTED_EDGE('',*,*,#839,.F.);
#1049=ORIENTED_EDGE('',*,*,#840,.F.);
#1050=ORIENTED_EDGE('',*,*,#841,.F.);
#1051=ORIENTED_EDGE('',*,*,#777,.F.);
#1052=ORIENTED_EDGE('',*,*,#842,.T.);
#1053=ORIENTED_EDGE('',*,*,#843,.T.);
#1054=ORIENTED_EDGE('',*,*,#844,.T.);
#1055=ORIENTED_EDGE('',*,*,#845,.T.);
#1056=ORIENTED_EDGE('',*,*,#846,.T.);
#1057=ORIENTED_EDGE('',*,*,#847,.T.);
#1058=ORIENTED_EDGE('',*,*,#848,.T.);
#1059=ORIENTED_EDGE('',*,*,#827,.T.);
#1060=ORIENTED_EDGE('',*,*,#849,.T.);
#1061=ORIENTED_EDGE('',*,*,#849,.F.);
#1062=ORIENTED_EDGE('',*,*,#826,.T.);
#1063=ORIENTED_EDGE('',*,*,#850,.T.);
#1064=ORIENTED_EDGE('',*,*,#851,.F.);
#1065=ORIENTED_EDGE('',*,*,#852,.T.);
#1066=ORIENTED_EDGE('',*,*,#853,.T.);
#1067=ORIENTED_EDGE('',*,*,#795,.T.);
#1068=ORIENTED_EDGE('',*,*,#854,.T.);
#1069=ORIENTED_EDGE('',*,*,#854,.F.);
#1070=ORIENTED_EDGE('',*,*,#794,.T.);
#1071=ORIENTED_EDGE('',*,*,#855,.T.);
#1072=ORIENTED_EDGE('',*,*,#856,.F.);
#1073=ORIENTED_EDGE('',*,*,#857,.T.);
#1074=ORIENTED_EDGE('',*,*,#858,.T.);
#1075=ORIENTED_EDGE('',*,*,#811,.T.);
#1076=ORIENTED_EDGE('',*,*,#859,.T.);
#1077=ORIENTED_EDGE('',*,*,#858,.F.);
#1078=ORIENTED_EDGE('',*,*,#860,.F.);
#1079=ORIENTED_EDGE('',*,*,#861,.F.);
#1080=ORIENTED_EDGE('',*,*,#812,.T.);
#1081=ORIENTED_EDGE('',*,*,#842,.F.);
#1082=ORIENTED_EDGE('',*,*,#862,.T.);
#1083=ORIENTED_EDGE('',*,*,#863,.F.);
#1084=ORIENTED_EDGE('',*,*,#862,.F.);
#1085=ORIENTED_EDGE('',*,*,#843,.F.);
#1086=ORIENTED_EDGE('',*,*,#864,.T.);
#1087=ORIENTED_EDGE('',*,*,#865,.F.);
#1088=ORIENTED_EDGE('',*,*,#864,.F.);
#1089=ORIENTED_EDGE('',*,*,#844,.F.);
#1090=ORIENTED_EDGE('',*,*,#866,.T.);
#1091=ORIENTED_EDGE('',*,*,#867,.F.);
#1092=ORIENTED_EDGE('',*,*,#866,.F.);
#1093=ORIENTED_EDGE('',*,*,#845,.F.);
#1094=ORIENTED_EDGE('',*,*,#868,.T.);
#1095=ORIENTED_EDGE('',*,*,#869,.F.);
#1096=ORIENTED_EDGE('',*,*,#868,.F.);
#1097=ORIENTED_EDGE('',*,*,#846,.F.);
#1098=ORIENTED_EDGE('',*,*,#870,.T.);
#1099=ORIENTED_EDGE('',*,*,#871,.F.);
#1100=ORIENTED_EDGE('',*,*,#870,.F.);
#1101=ORIENTED_EDGE('',*,*,#853,.F.);
#1102=ORIENTED_EDGE('',*,*,#872,.F.);
#1103=ORIENTED_EDGE('',*,*,#873,.F.);
#1104=ORIENTED_EDGE('',*,*,#796,.T.);
#1105=ORIENTED_EDGE('',*,*,#797,.T.);
#1106=ORIENTED_EDGE('',*,*,#873,.T.);
#1107=ORIENTED_EDGE('',*,*,#874,.F.);
#1108=ORIENTED_EDGE('',*,*,#875,.F.);
#1109=ORIENTED_EDGE('',*,*,#798,.T.);
#1110=ORIENTED_EDGE('',*,*,#875,.T.);
#1111=ORIENTED_EDGE('',*,*,#876,.F.);
#1112=ORIENTED_EDGE('',*,*,#877,.F.);
#1113=ORIENTED_EDGE('',*,*,#799,.T.);
#1114=ORIENTED_EDGE('',*,*,#877,.T.);
#1115=ORIENTED_EDGE('',*,*,#878,.F.);
#1116=ORIENTED_EDGE('',*,*,#879,.F.);
#1117=ORIENTED_EDGE('',*,*,#800,.T.);
#1118=ORIENTED_EDGE('',*,*,#879,.T.);
#1119=ORIENTED_EDGE('',*,*,#880,.F.);
#1120=ORIENTED_EDGE('',*,*,#881,.F.);
#1121=ORIENTED_EDGE('',*,*,#801,.T.);
#1122=ORIENTED_EDGE('',*,*,#881,.T.);
#1123=ORIENTED_EDGE('',*,*,#882,.F.);
#1124=ORIENTED_EDGE('',*,*,#883,.F.);
#1125=ORIENTED_EDGE('',*,*,#802,.T.);
#1126=ORIENTED_EDGE('',*,*,#883,.T.);
#1127=ORIENTED_EDGE('',*,*,#884,.F.);
#1128=ORIENTED_EDGE('',*,*,#885,.F.);
#1129=ORIENTED_EDGE('',*,*,#803,.T.);
#1130=ORIENTED_EDGE('',*,*,#885,.T.);
#1131=ORIENTED_EDGE('',*,*,#886,.F.);
#1132=ORIENTED_EDGE('',*,*,#887,.F.);
#1133=ORIENTED_EDGE('',*,*,#804,.T.);
#1134=ORIENTED_EDGE('',*,*,#887,.T.);
#1135=ORIENTED_EDGE('',*,*,#888,.F.);
#1136=ORIENTED_EDGE('',*,*,#889,.F.);
#1137=ORIENTED_EDGE('',*,*,#805,.T.);
#1138=ORIENTED_EDGE('',*,*,#889,.T.);
#1139=ORIENTED_EDGE('',*,*,#890,.F.);
#1140=ORIENTED_EDGE('',*,*,#891,.F.);
#1141=ORIENTED_EDGE('',*,*,#806,.T.);
#1142=ORIENTED_EDGE('',*,*,#891,.T.);
#1143=ORIENTED_EDGE('',*,*,#892,.F.);
#1144=ORIENTED_EDGE('',*,*,#893,.F.);
#1145=ORIENTED_EDGE('',*,*,#807,.T.);
#1146=ORIENTED_EDGE('',*,*,#893,.T.);
#1147=ORIENTED_EDGE('',*,*,#894,.F.);
#1148=ORIENTED_EDGE('',*,*,#895,.F.);
#1149=ORIENTED_EDGE('',*,*,#808,.T.);
#1150=ORIENTED_EDGE('',*,*,#895,.T.);
#1151=ORIENTED_EDGE('',*,*,#896,.F.);
#1152=ORIENTED_EDGE('',*,*,#897,.F.);
#1153=ORIENTED_EDGE('',*,*,#809,.T.);
#1154=ORIENTED_EDGE('',*,*,#897,.T.);
#1155=ORIENTED_EDGE('',*,*,#898,.F.);
#1156=ORIENTED_EDGE('',*,*,#899,.F.);
#1157=ORIENTED_EDGE('',*,*,#859,.F.);
#1158=ORIENTED_EDGE('',*,*,#810,.T.);
#1159=ORIENTED_EDGE('',*,*,#899,.T.);
#1160=ORIENTED_EDGE('',*,*,#900,.F.);
#1161=ORIENTED_EDGE('',*,*,#813,.T.);
#1162=ORIENTED_EDGE('',*,*,#861,.T.);
#1163=ORIENTED_EDGE('',*,*,#901,.F.);
#1164=ORIENTED_EDGE('',*,*,#902,.F.);
#1165=ORIENTED_EDGE('',*,*,#814,.T.);
#1166=ORIENTED_EDGE('',*,*,#902,.T.);
#1167=ORIENTED_EDGE('',*,*,#903,.F.);
#1168=ORIENTED_EDGE('',*,*,#904,.F.);
#1169=ORIENTED_EDGE('',*,*,#815,.T.);
#1170=ORIENTED_EDGE('',*,*,#904,.T.);
#1171=ORIENTED_EDGE('',*,*,#905,.F.);
#1172=ORIENTED_EDGE('',*,*,#906,.F.);
#1173=ORIENTED_EDGE('',*,*,#816,.T.);
#1174=ORIENTED_EDGE('',*,*,#906,.T.);
#1175=ORIENTED_EDGE('',*,*,#907,.F.);
#1176=ORIENTED_EDGE('',*,*,#908,.F.);
#1177=ORIENTED_EDGE('',*,*,#817,.T.);
#1178=ORIENTED_EDGE('',*,*,#908,.T.);
#1179=ORIENTED_EDGE('',*,*,#909,.F.);
#1180=ORIENTED_EDGE('',*,*,#910,.F.);
#1181=ORIENTED_EDGE('',*,*,#818,.T.);
#1182=ORIENTED_EDGE('',*,*,#910,.T.);
#1183=ORIENTED_EDGE('',*,*,#911,.F.);
#1184=ORIENTED_EDGE('',*,*,#912,.F.);
#1185=ORIENTED_EDGE('',*,*,#819,.T.);
#1186=ORIENTED_EDGE('',*,*,#912,.T.);
#1187=ORIENTED_EDGE('',*,*,#913,.F.);
#1188=ORIENTED_EDGE('',*,*,#914,.F.);
#1189=ORIENTED_EDGE('',*,*,#820,.T.);
#1190=ORIENTED_EDGE('',*,*,#914,.T.);
#1191=ORIENTED_EDGE('',*,*,#915,.F.);
#1192=ORIENTED_EDGE('',*,*,#916,.F.);
#1193=ORIENTED_EDGE('',*,*,#821,.T.);
#1194=ORIENTED_EDGE('',*,*,#916,.T.);
#1195=ORIENTED_EDGE('',*,*,#917,.F.);
#1196=ORIENTED_EDGE('',*,*,#918,.F.);
#1197=ORIENTED_EDGE('',*,*,#822,.T.);
#1198=ORIENTED_EDGE('',*,*,#918,.T.);
#1199=ORIENTED_EDGE('',*,*,#919,.F.);
#1200=ORIENTED_EDGE('',*,*,#920,.F.);
#1201=ORIENTED_EDGE('',*,*,#823,.T.);
#1202=ORIENTED_EDGE('',*,*,#920,.T.);
#1203=ORIENTED_EDGE('',*,*,#921,.F.);
#1204=ORIENTED_EDGE('',*,*,#922,.F.);
#1205=ORIENTED_EDGE('',*,*,#824,.T.);
#1206=ORIENTED_EDGE('',*,*,#922,.T.);
#1207=ORIENTED_EDGE('',*,*,#923,.F.);
#1208=ORIENTED_EDGE('',*,*,#924,.F.);
#1209=ORIENTED_EDGE('',*,*,#825,.T.);
#1210=ORIENTED_EDGE('',*,*,#924,.T.);
#1211=ORIENTED_EDGE('',*,*,#925,.F.);
#1212=ORIENTED_EDGE('',*,*,#850,.F.);
#1213=ORIENTED_EDGE('',*,*,#848,.F.);
#1214=ORIENTED_EDGE('',*,*,#926,.F.);
#1215=ORIENTED_EDGE('',*,*,#927,.F.);
#1216=ORIENTED_EDGE('',*,*,#828,.T.);
#1217=ORIENTED_EDGE('',*,*,#829,.T.);
#1218=ORIENTED_EDGE('',*,*,#927,.T.);
#1219=ORIENTED_EDGE('',*,*,#928,.F.);
#1220=ORIENTED_EDGE('',*,*,#929,.F.);
#1221=ORIENTED_EDGE('',*,*,#830,.T.);
#1222=ORIENTED_EDGE('',*,*,#929,.T.);
#1223=ORIENTED_EDGE('',*,*,#930,.F.);
#1224=ORIENTED_EDGE('',*,*,#931,.F.);
#1225=ORIENTED_EDGE('',*,*,#831,.T.);
#1226=ORIENTED_EDGE('',*,*,#931,.T.);
#1227=ORIENTED_EDGE('',*,*,#932,.F.);
#1228=ORIENTED_EDGE('',*,*,#933,.F.);
#1229=ORIENTED_EDGE('',*,*,#832,.T.);
#1230=ORIENTED_EDGE('',*,*,#933,.T.);
#1231=ORIENTED_EDGE('',*,*,#934,.F.);
#1232=ORIENTED_EDGE('',*,*,#935,.F.);
#1233=ORIENTED_EDGE('',*,*,#833,.T.);
#1234=ORIENTED_EDGE('',*,*,#935,.T.);
#1235=ORIENTED_EDGE('',*,*,#936,.F.);
#1236=ORIENTED_EDGE('',*,*,#937,.F.);
#1237=ORIENTED_EDGE('',*,*,#834,.T.);
#1238=ORIENTED_EDGE('',*,*,#937,.T.);
#1239=ORIENTED_EDGE('',*,*,#938,.F.);
#1240=ORIENTED_EDGE('',*,*,#939,.F.);
#1241=ORIENTED_EDGE('',*,*,#835,.T.);
#1242=ORIENTED_EDGE('',*,*,#939,.T.);
#1243=ORIENTED_EDGE('',*,*,#940,.F.);
#1244=ORIENTED_EDGE('',*,*,#941,.F.);
#1245=ORIENTED_EDGE('',*,*,#836,.T.);
#1246=ORIENTED_EDGE('',*,*,#941,.T.);
#1247=ORIENTED_EDGE('',*,*,#942,.F.);
#1248=ORIENTED_EDGE('',*,*,#943,.F.);
#1249=ORIENTED_EDGE('',*,*,#837,.T.);
#1250=ORIENTED_EDGE('',*,*,#943,.T.);
#1251=ORIENTED_EDGE('',*,*,#944,.F.);
#1252=ORIENTED_EDGE('',*,*,#945,.F.);
#1253=ORIENTED_EDGE('',*,*,#838,.T.);
#1254=ORIENTED_EDGE('',*,*,#945,.T.);
#1255=ORIENTED_EDGE('',*,*,#946,.F.);
#1256=ORIENTED_EDGE('',*,*,#947,.F.);
#1257=ORIENTED_EDGE('',*,*,#839,.T.);
#1258=ORIENTED_EDGE('',*,*,#947,.T.);
#1259=ORIENTED_EDGE('',*,*,#948,.F.);
#1260=ORIENTED_EDGE('',*,*,#949,.F.);
#1261=ORIENTED_EDGE('',*,*,#840,.T.);
#1262=ORIENTED_EDGE('',*,*,#949,.T.);
#1263=ORIENTED_EDGE('',*,*,#950,.F.);
#1264=ORIENTED_EDGE('',*,*,#951,.F.);
#1265=ORIENTED_EDGE('',*,*,#841,.T.);
#1266=ORIENTED_EDGE('',*,*,#951,.T.);
#1267=ORIENTED_EDGE('',*,*,#952,.F.);
#1268=ORIENTED_EDGE('',*,*,#778,.F.);
#1269=ORIENTED_EDGE('',*,*,#774,.F.);
#1270=ORIENTED_EDGE('',*,*,#953,.F.);
#1271=ORIENTED_EDGE('',*,*,#954,.F.);
#1272=ORIENTED_EDGE('',*,*,#780,.T.);
#1273=ORIENTED_EDGE('',*,*,#781,.T.);
#1274=ORIENTED_EDGE('',*,*,#954,.T.);
#1275=ORIENTED_EDGE('',*,*,#955,.F.);
#1276=ORIENTED_EDGE('',*,*,#956,.F.);
#1277=ORIENTED_EDGE('',*,*,#782,.T.);
#1278=ORIENTED_EDGE('',*,*,#956,.T.);
#1279=ORIENTED_EDGE('',*,*,#957,.F.);
#1280=ORIENTED_EDGE('',*,*,#958,.F.);
#1281=ORIENTED_EDGE('',*,*,#783,.T.);
#1282=ORIENTED_EDGE('',*,*,#958,.T.);
#1283=ORIENTED_EDGE('',*,*,#959,.F.);
#1284=ORIENTED_EDGE('',*,*,#960,.F.);
#1285=ORIENTED_EDGE('',*,*,#784,.T.);
#1286=ORIENTED_EDGE('',*,*,#960,.T.);
#1287=ORIENTED_EDGE('',*,*,#961,.F.);
#1288=ORIENTED_EDGE('',*,*,#962,.F.);
#1289=ORIENTED_EDGE('',*,*,#785,.T.);
#1290=ORIENTED_EDGE('',*,*,#962,.T.);
#1291=ORIENTED_EDGE('',*,*,#963,.F.);
#1292=ORIENTED_EDGE('',*,*,#964,.F.);
#1293=ORIENTED_EDGE('',*,*,#786,.T.);
#1294=ORIENTED_EDGE('',*,*,#964,.T.);
#1295=ORIENTED_EDGE('',*,*,#965,.F.);
#1296=ORIENTED_EDGE('',*,*,#966,.F.);
#1297=ORIENTED_EDGE('',*,*,#787,.T.);
#1298=ORIENTED_EDGE('',*,*,#966,.T.);
#1299=ORIENTED_EDGE('',*,*,#967,.F.);
#1300=ORIENTED_EDGE('',*,*,#968,.F.);
#1301=ORIENTED_EDGE('',*,*,#788,.T.);
#1302=ORIENTED_EDGE('',*,*,#968,.T.);
#1303=ORIENTED_EDGE('',*,*,#969,.F.);
#1304=ORIENTED_EDGE('',*,*,#970,.F.);
#1305=ORIENTED_EDGE('',*,*,#789,.T.);
#1306=ORIENTED_EDGE('',*,*,#970,.T.);
#1307=ORIENTED_EDGE('',*,*,#971,.F.);
#1308=ORIENTED_EDGE('',*,*,#972,.F.);
#1309=ORIENTED_EDGE('',*,*,#790,.T.);
#1310=ORIENTED_EDGE('',*,*,#972,.T.);
#1311=ORIENTED_EDGE('',*,*,#973,.F.);
#1312=ORIENTED_EDGE('',*,*,#974,.F.);
#1313=ORIENTED_EDGE('',*,*,#791,.T.);
#1314=ORIENTED_EDGE('',*,*,#974,.T.);
#1315=ORIENTED_EDGE('',*,*,#975,.F.);
#1316=ORIENTED_EDGE('',*,*,#976,.F.);
#1317=ORIENTED_EDGE('',*,*,#792,.T.);
#1318=ORIENTED_EDGE('',*,*,#976,.T.);
#1319=ORIENTED_EDGE('',*,*,#977,.F.);
#1320=ORIENTED_EDGE('',*,*,#978,.F.);
#1321=ORIENTED_EDGE('',*,*,#793,.T.);
#1322=ORIENTED_EDGE('',*,*,#978,.T.);
#1323=ORIENTED_EDGE('',*,*,#979,.F.);
#1324=ORIENTED_EDGE('',*,*,#855,.F.);
#1325=ORIENTED_EDGE('',*,*,#773,.F.);
#1326=ORIENTED_EDGE('',*,*,#779,.T.);
#1327=ORIENTED_EDGE('',*,*,#952,.T.);
#1328=ORIENTED_EDGE('',*,*,#950,.T.);
#1329=ORIENTED_EDGE('',*,*,#948,.T.);
#1330=ORIENTED_EDGE('',*,*,#946,.T.);
#1331=ORIENTED_EDGE('',*,*,#944,.T.);
#1332=ORIENTED_EDGE('',*,*,#942,.T.);
#1333=ORIENTED_EDGE('',*,*,#940,.T.);
#1334=ORIENTED_EDGE('',*,*,#938,.T.);
#1335=ORIENTED_EDGE('',*,*,#936,.T.);
#1336=ORIENTED_EDGE('',*,*,#934,.T.);
#1337=ORIENTED_EDGE('',*,*,#932,.T.);
#1338=ORIENTED_EDGE('',*,*,#930,.T.);
#1339=ORIENTED_EDGE('',*,*,#928,.T.);
#1340=ORIENTED_EDGE('',*,*,#926,.T.);
#1341=ORIENTED_EDGE('',*,*,#847,.F.);
#1342=ORIENTED_EDGE('',*,*,#851,.T.);
#1343=ORIENTED_EDGE('',*,*,#925,.T.);
#1344=ORIENTED_EDGE('',*,*,#923,.T.);
#1345=ORIENTED_EDGE('',*,*,#921,.T.);
#1346=ORIENTED_EDGE('',*,*,#919,.T.);
#1347=ORIENTED_EDGE('',*,*,#917,.T.);
#1348=ORIENTED_EDGE('',*,*,#915,.T.);
#1349=ORIENTED_EDGE('',*,*,#913,.T.);
#1350=ORIENTED_EDGE('',*,*,#911,.T.);
#1351=ORIENTED_EDGE('',*,*,#909,.T.);
#1352=ORIENTED_EDGE('',*,*,#907,.T.);
#1353=ORIENTED_EDGE('',*,*,#905,.T.);
#1354=ORIENTED_EDGE('',*,*,#903,.T.);
#1355=ORIENTED_EDGE('',*,*,#901,.T.);
#1356=ORIENTED_EDGE('',*,*,#860,.T.);
#1357=ORIENTED_EDGE('',*,*,#857,.F.);
#1358=ORIENTED_EDGE('',*,*,#900,.T.);
#1359=ORIENTED_EDGE('',*,*,#898,.T.);
#1360=ORIENTED_EDGE('',*,*,#896,.T.);
#1361=ORIENTED_EDGE('',*,*,#894,.T.);
#1362=ORIENTED_EDGE('',*,*,#892,.T.);
#1363=ORIENTED_EDGE('',*,*,#890,.T.);
#1364=ORIENTED_EDGE('',*,*,#888,.T.);
#1365=ORIENTED_EDGE('',*,*,#886,.T.);
#1366=ORIENTED_EDGE('',*,*,#884,.T.);
#1367=ORIENTED_EDGE('',*,*,#882,.T.);
#1368=ORIENTED_EDGE('',*,*,#880,.T.);
#1369=ORIENTED_EDGE('',*,*,#878,.T.);
#1370=ORIENTED_EDGE('',*,*,#876,.T.);
#1371=ORIENTED_EDGE('',*,*,#874,.T.);
#1372=ORIENTED_EDGE('',*,*,#872,.T.);
#1373=ORIENTED_EDGE('',*,*,#852,.F.);
#1374=ORIENTED_EDGE('',*,*,#856,.T.);
#1375=ORIENTED_EDGE('',*,*,#979,.T.);
#1376=ORIENTED_EDGE('',*,*,#977,.T.);
#1377=ORIENTED_EDGE('',*,*,#975,.T.);
#1378=ORIENTED_EDGE('',*,*,#973,.T.);
#1379=ORIENTED_EDGE('',*,*,#971,.T.);
#1380=ORIENTED_EDGE('',*,*,#969,.T.);
#1381=ORIENTED_EDGE('',*,*,#967,.T.);
#1382=ORIENTED_EDGE('',*,*,#965,.T.);
#1383=ORIENTED_EDGE('',*,*,#963,.T.);
#1384=ORIENTED_EDGE('',*,*,#961,.T.);
#1385=ORIENTED_EDGE('',*,*,#959,.T.);
#1386=ORIENTED_EDGE('',*,*,#957,.T.);
#1387=ORIENTED_EDGE('',*,*,#955,.T.);
#1388=ORIENTED_EDGE('',*,*,#953,.T.);
#1389=ORIENTED_EDGE('',*,*,#863,.T.);
#1390=ORIENTED_EDGE('',*,*,#865,.T.);
#1391=ORIENTED_EDGE('',*,*,#867,.T.);
#1392=ORIENTED_EDGE('',*,*,#869,.T.);
#1393=ORIENTED_EDGE('',*,*,#871,.T.);
#1394=CYLINDRICAL_SURFACE('',#1494,0.5);
#1395=CYLINDRICAL_SURFACE('',#1507,0.5);
#1396=CYLINDRICAL_SURFACE('',#1510,0.5);
#1397=CYLINDRICAL_SURFACE('',#1513,0.5);
#1398=CYLINDRICAL_SURFACE('',#1516,3.25);
#1399=CYLINDRICAL_SURFACE('',#1518,1.5);
#1400=CYLINDRICAL_SURFACE('',#1520,1.5);
#1401=CYLINDRICAL_SURFACE('',#1522,1.5);
#1402=CYLINDRICAL_SURFACE('',#1524,1.5);
#1403=ADVANCED_FACE('',(#87),#1394,.T.);
#1404=ADVANCED_FACE('',(#88),#25,.T.);
#1405=ADVANCED_FACE('',(#89,#15,#16,#17,#18,#19),#26,.F.);
#1406=ADVANCED_FACE('',(#90),#1395,.T.);
#1407=ADVANCED_FACE('',(#91),#27,.T.);
#1408=ADVANCED_FACE('',(#92),#1396,.T.);
#1409=ADVANCED_FACE('',(#93),#28,.T.);
#1410=ADVANCED_FACE('',(#94),#1397,.T.);
#1411=ADVANCED_FACE('',(#95),#29,.T.);
#1412=ADVANCED_FACE('',(#96),#1398,.F.);
#1413=ADVANCED_FACE('',(#97),#1399,.F.);
#1414=ADVANCED_FACE('',(#98),#1400,.F.);
#1415=ADVANCED_FACE('',(#99),#1401,.F.);
#1416=ADVANCED_FACE('',(#100),#1402,.F.);
#1417=ADVANCED_FACE('',(#101),#30,.T.);
#1418=ADVANCED_FACE('',(#102),#31,.T.);
#1419=ADVANCED_FACE('',(#103),#32,.T.);
#1420=ADVANCED_FACE('',(#104),#33,.T.);
#1421=ADVANCED_FACE('',(#105),#34,.T.);
#1422=ADVANCED_FACE('',(#106),#35,.T.);
#1423=ADVANCED_FACE('',(#107),#36,.T.);
#1424=ADVANCED_FACE('',(#108),#37,.T.);
#1425=ADVANCED_FACE('',(#109),#38,.T.);
#1426=ADVANCED_FACE('',(#110),#39,.T.);
#1427=ADVANCED_FACE('',(#111),#40,.T.);
#1428=ADVANCED_FACE('',(#112),#41,.T.);
#1429=ADVANCED_FACE('',(#113),#42,.T.);
#1430=ADVANCED_FACE('',(#114),#43,.T.);
#1431=ADVANCED_FACE('',(#115),#44,.T.);
#1432=ADVANCED_FACE('',(#116),#45,.T.);
#1433=ADVANCED_FACE('',(#117),#46,.T.);
#1434=ADVANCED_FACE('',(#118),#47,.T.);
#1435=ADVANCED_FACE('',(#119),#48,.T.);
#1436=ADVANCED_FACE('',(#120),#49,.T.);
#1437=ADVANCED_FACE('',(#121),#50,.T.);
#1438=ADVANCED_FACE('',(#122),#51,.T.);
#1439=ADVANCED_FACE('',(#123),#52,.T.);
#1440=ADVANCED_FACE('',(#124),#53,.T.);
#1441=ADVANCED_FACE('',(#125),#54,.T.);
#1442=ADVANCED_FACE('',(#126),#55,.T.);
#1443=ADVANCED_FACE('',(#127),#56,.T.);
#1444=ADVANCED_FACE('',(#128),#57,.T.);
#1445=ADVANCED_FACE('',(#129),#58,.T.);
#1446=ADVANCED_FACE('',(#130),#59,.T.);
#1447=ADVANCED_FACE('',(#131),#60,.T.);
#1448=ADVANCED_FACE('',(#132),#61,.T.);
#1449=ADVANCED_FACE('',(#133),#62,.T.);
#1450=ADVANCED_FACE('',(#134),#63,.T.);
#1451=ADVANCED_FACE('',(#135),#64,.T.);
#1452=ADVANCED_FACE('',(#136),#65,.T.);
#1453=ADVANCED_FACE('',(#137),#66,.T.);
#1454=ADVANCED_FACE('',(#138),#67,.T.);
#1455=ADVANCED_FACE('',(#139),#68,.T.);
#1456=ADVANCED_FACE('',(#140),#69,.T.);
#1457=ADVANCED_FACE('',(#141),#70,.T.);
#1458=ADVANCED_FACE('',(#142),#71,.T.);
#1459=ADVANCED_FACE('',(#143),#72,.T.);
#1460=ADVANCED_FACE('',(#144),#73,.T.);
#1461=ADVANCED_FACE('',(#145),#74,.T.);
#1462=ADVANCED_FACE('',(#146),#75,.T.);
#1463=ADVANCED_FACE('',(#147),#76,.T.);
#1464=ADVANCED_FACE('',(#148),#77,.T.);
#1465=ADVANCED_FACE('',(#149),#78,.T.);
#1466=ADVANCED_FACE('',(#150),#79,.T.);
#1467=ADVANCED_FACE('',(#151),#80,.T.);
#1468=ADVANCED_FACE('',(#152),#81,.T.);
#1469=ADVANCED_FACE('',(#153),#82,.T.);
#1470=ADVANCED_FACE('',(#154),#83,.T.);
#1471=ADVANCED_FACE('',(#155),#84,.T.);
#1472=ADVANCED_FACE('',(#156),#85,.T.);
#1473=ADVANCED_FACE('',(#157,#20,#21,#22,#23,#24),#86,.T.);
#1474=CLOSED_SHELL('',(#1403,#1404,#1405,#1406,#1407,#1408,#1409,#1410,
#1411,#1412,#1413,#1414,#1415,#1416,#1417,#1418,#1419,#1420,#1421,#1422,
#1423,#1424,#1425,#1426,#1427,#1428,#1429,#1430,#1431,#1432,#1433,#1434,
#1435,#1436,#1437,#1438,#1439,#1440,#1441,#1442,#1443,#1444,#1445,#1446,
#1447,#1448,#1449,#1450,#1451,#1452,#1453,#1454,#1455,#1456,#1457,#1458,
#1459,#1460,#1461,#1462,#1463,#1464,#1465,#1466,#1467,#1468,#1469,#1470,
#1471,#1472,#1473));
#1475=DERIVED_UNIT_ELEMENT(#1477,1.);
#1476=DERIVED_UNIT_ELEMENT(#2374,3.);
#1477=(
MASS_UNIT()
NAMED_UNIT(*)
SI_UNIT($,.GRAM.)
);
#1478=DERIVED_UNIT((#1475,#1476));
#1479=MEASURE_REPRESENTATION_ITEM('density measure',
POSITIVE_RATIO_MEASURE(1.),#1478);
#1480=PROPERTY_DEFINITION_REPRESENTATION(#1485,#1482);
#1481=PROPERTY_DEFINITION_REPRESENTATION(#1486,#1483);
#1482=REPRESENTATION('material name',(#1484),#2371);
#1483=REPRESENTATION('density',(#1479),#2371);
#1484=DESCRIPTIVE_REPRESENTATION_ITEM('Generic','Generic');
#1485=PROPERTY_DEFINITION('material property','material name',#2381);
#1486=PROPERTY_DEFINITION('material property','density of part',#2381);
#1487=DATE_TIME_ROLE('creation_date');
#1488=APPLIED_DATE_AND_TIME_ASSIGNMENT(#1489,#1487,(#2381));
#1489=DATE_AND_TIME(#1490,#1491);
#1490=CALENDAR_DATE(2017,29,12);
#1491=LOCAL_TIME(0,30,36.,#1492);
#1492=COORDINATED_UNIVERSAL_TIME_OFFSET(0,0,.BEHIND.);
#1493=AXIS2_PLACEMENT_3D('placement',#1952,#1583,#1584);
#1494=AXIS2_PLACEMENT_3D('',#1953,#1585,#1586);
#1495=AXIS2_PLACEMENT_3D('',#1956,#1587,#1588);
#1496=AXIS2_PLACEMENT_3D('',#1960,#1590,#1591);
#1497=AXIS2_PLACEMENT_3D('',#1962,#1593,#1594);
#1498=AXIS2_PLACEMENT_3D('',#1968,#1598,#1599);
#1499=AXIS2_PLACEMENT_3D('',#2000,#1615,#1616);
#1500=AXIS2_PLACEMENT_3D('',#2032,#1632,#1633);
#1501=AXIS2_PLACEMENT_3D('',#2064,#1649,#1650);
#1502=AXIS2_PLACEMENT_3D('',#2093,#1665,#1666);
#1503=AXIS2_PLACEMENT_3D('',#2095,#1667,#1668);
#1504=AXIS2_PLACEMENT_3D('',#2097,#1669,#1670);
#1505=AXIS2_PLACEMENT_3D('',#2099,#1671,#1672);
#1506=AXIS2_PLACEMENT_3D('',#2101,#1673,#1674);
#1507=AXIS2_PLACEMENT_3D('',#2102,#1675,#1676);
#1508=AXIS2_PLACEMENT_3D('',#2105,#1677,#1678);
#1509=AXIS2_PLACEMENT_3D('',#2108,#1681,#1682);
#1510=AXIS2_PLACEMENT_3D('',#2112,#1685,#1686);
#1511=AXIS2_PLACEMENT_3D('',#2115,#1687,#1688);
#1512=AXIS2_PLACEMENT_3D('',#2118,#1691,#1692);
#1513=AXIS2_PLACEMENT_3D('',#2122,#1695,#1696);
#1514=AXIS2_PLACEMENT_3D('',#2125,#1697,#1698);
#1515=AXIS2_PLACEMENT_3D('',#2128,#1701,#1702);
#1516=AXIS2_PLACEMENT_3D('',#2132,#1705,#1706);
#1517=AXIS2_PLACEMENT_3D('',#2135,#1708,#1709);
#1518=AXIS2_PLACEMENT_3D('',#2136,#1710,#1711);
#1519=AXIS2_PLACEMENT_3D('',#2139,#1713,#1714);
#1520=AXIS2_PLACEMENT_3D('',#2140,#1715,#1716);
#1521=AXIS2_PLACEMENT_3D('',#2143,#1718,#1719);
#1522=AXIS2_PLACEMENT_3D('',#2144,#1720,#1721);
#1523=AXIS2_PLACEMENT_3D('',#2147,#1723,#1724);
#1524=AXIS2_PLACEMENT_3D('',#2148,#1725,#1726);
#1525=AXIS2_PLACEMENT_3D('',#2151,#1728,#1729);
#1526=AXIS2_PLACEMENT_3D('',#2152,#1730,#1731);
#1527=AXIS2_PLACEMENT_3D('',#2156,#1734,#1735);
#1528=AXIS2_PLACEMENT_3D('',#2160,#1738,#1739);
#1529=AXIS2_PLACEMENT_3D('',#2164,#1742,#1743);
#1530=AXIS2_PLACEMENT_3D('',#2168,#1746,#1747);
#1531=AXIS2_PLACEMENT_3D('',#2172,#1750,#1751);
#1532=AXIS2_PLACEMENT_3D('',#2176,#1754,#1755);
#1533=AXIS2_PLACEMENT_3D('',#2180,#1758,#1759);
#1534=AXIS2_PLACEMENT_3D('',#2184,#1762,#1763);
#1535=AXIS2_PLACEMENT_3D('',#2188,#1766,#1767);
#1536=AXIS2_PLACEMENT_3D('',#2192,#1770,#1771);
#1537=AXIS2_PLACEMENT_3D('',#2196,#1774,#1775);
#1538=AXIS2_PLACEMENT_3D('',#2200,#1778,#1779);
#1539=AXIS2_PLACEMENT_3D('',#2204,#1782,#1783);
#1540=AXIS2_PLACEMENT_3D('',#2208,#1786,#1787);
#1541=AXIS2_PLACEMENT_3D('',#2210,#1789,#1790);
#1542=AXIS2_PLACEMENT_3D('',#2214,#1793,#1794);
#1543=AXIS2_PLACEMENT_3D('',#2218,#1797,#1798);
#1544=AXIS2_PLACEMENT_3D('',#2222,#1801,#1802);
#1545=AXIS2_PLACEMENT_3D('',#2226,#1805,#1806);
#1546=AXIS2_PLACEMENT_3D('',#2230,#1809,#1810);
#1547=AXIS2_PLACEMENT_3D('',#2234,#1813,#1814);
#1548=AXIS2_PLACEMENT_3D('',#2238,#1817,#1818);
#1549=AXIS2_PLACEMENT_3D('',#2242,#1821,#1822);
#1550=AXIS2_PLACEMENT_3D('',#2246,#1825,#1826);
#1551=AXIS2_PLACEMENT_3D('',#2250,#1829,#1830);
#1552=AXIS2_PLACEMENT_3D('',#2254,#1833,#1834);
#1553=AXIS2_PLACEMENT_3D('',#2258,#1837,#1838);
#1554=AXIS2_PLACEMENT_3D('',#2260,#1840,#1841);
#1555=AXIS2_PLACEMENT_3D('',#2264,#1844,#1845);
#1556=AXIS2_PLACEMENT_3D('',#2268,#1848,#1849);
#1557=AXIS2_PLACEMENT_3D('',#2272,#1852,#1853);
#1558=AXIS2_PLACEMENT_3D('',#2276,#1856,#1857);
#1559=AXIS2_PLACEMENT_3D('',#2280,#1860,#1861);
#1560=AXIS2_PLACEMENT_3D('',#2284,#1864,#1865);
#1561=AXIS2_PLACEMENT_3D('',#2288,#1868,#1869);
#1562=AXIS2_PLACEMENT_3D('',#2292,#1872,#1873);
#1563=AXIS2_PLACEMENT_3D('',#2296,#1876,#1877);
#1564=AXIS2_PLACEMENT_3D('',#2300,#1880,#1881);
#1565=AXIS2_PLACEMENT_3D('',#2304,#1884,#1885);
#1566=AXIS2_PLACEMENT_3D('',#2308,#1888,#1889);
#1567=AXIS2_PLACEMENT_3D('',#2312,#1892,#1893);
#1568=AXIS2_PLACEMENT_3D('',#2314,#1895,#1896);
#1569=AXIS2_PLACEMENT_3D('',#2318,#1899,#1900);
#1570=AXIS2_PLACEMENT_3D('',#2322,#1903,#1904);
#1571=AXIS2_PLACEMENT_3D('',#2326,#1907,#1908);
#1572=AXIS2_PLACEMENT_3D('',#2330,#1911,#1912);
#1573=AXIS2_PLACEMENT_3D('',#2334,#1915,#1916);
#1574=AXIS2_PLACEMENT_3D('',#2338,#1919,#1920);
#1575=AXIS2_PLACEMENT_3D('',#2342,#1923,#1924);
#1576=AXIS2_PLACEMENT_3D('',#2346,#1927,#1928);
#1577=AXIS2_PLACEMENT_3D('',#2350,#1931,#1932);
#1578=AXIS2_PLACEMENT_3D('',#2354,#1935,#1936);
#1579=AXIS2_PLACEMENT_3D('',#2358,#1939,#1940);
#1580=AXIS2_PLACEMENT_3D('',#2362,#1943,#1944);
#1581=AXIS2_PLACEMENT_3D('',#2366,#1947,#1948);
#1582=AXIS2_PLACEMENT_3D('',#2368,#1950,#1951);
#1583=DIRECTION('axis',(0.,0.,1.));
#1584=DIRECTION('refdir',(1.,0.,0.));
#1585=DIRECTION('center_axis',(0.,0.,1.));
#1586=DIRECTION('ref_axis',(-0.707106781186544,-0.707106781186551,0.));
#1587=DIRECTION('center_axis',(0.,0.,-1.));
#1588=DIRECTION('ref_axis',(-0.707106781186544,-0.707106781186551,0.));
#1589=DIRECTION('',(0.,0.,-1.));
#1590=DIRECTION('center_axis',(0.,0.,1.));
#1591=DIRECTION('ref_axis',(-0.707106781186544,-0.707106781186551,0.));
#1592=DIRECTION('',(0.,0.,1.));
#1593=DIRECTION('center_axis',(2.41352831440251E-16,-1.,0.));
#1594=DIRECTION('ref_axis',(1.,2.41352831440251E-16,0.));
#1595=DIRECTION('',(1.,2.41352831440251E-16,0.));
#1596=DIRECTION('',(0.,0.,1.));
#1597=DIRECTION('',(1.,2.41352831440251E-16,0.));
#1598=DIRECTION('center_axis',(0.,0.,1.));
#1599=DIRECTION('ref_axis',(1.,0.,0.));
#1600=DIRECTION('',(0.,-1.,0.));
#1601=DIRECTION('',(-1.,0.,0.));
#1602=DIRECTION('',(0.,-1.,0.));
#1603=DIRECTION('',(-1.,0.,0.));
#1604=DIRECTION('',(0.,1.,0.));
#1605=DIRECTION('',(-1.,0.,0.));
#1606=DIRECTION('',(-0.707106781186548,-0.707106781186548,0.));
#1607=DIRECTION('',(0.,-1.,0.));
#1608=DIRECTION('',(0.707106781186548,-0.707106781186547,0.));
#1609=DIRECTION('',(1.,-3.11792899483357E-16,0.));
#1610=DIRECTION('',(0.,1.,0.));
#1611=DIRECTION('',(1.,0.,0.));
#1612=DIRECTION('',(0.,-1.,0.));
#1613=DIRECTION('',(1.,0.,0.));
#1614=DIRECTION('',(0.,-1.,0.));
#1615=DIRECTION('center_axis',(0.,0.,1.));
#1616=DIRECTION('ref_axis',(-0.707106781186548,0.707106781186548,0.));
#1617=DIRECTION('',(-1.,2.41352831440251E-16,0.));
#1618=DIRECTION('',(0.,1.,0.));
#1619=DIRECTION('',(-1.,-2.77555756156289E-15,0.));
#1620=DIRECTION('',(0.,1.,0.));
#1621=DIRECTION('',(1.,-5.84327907697451E-16,0.));
#1622=DIRECTION('',(5.32280297060666E-16,1.,0.));
#1623=DIRECTION('',(-0.707106781186548,0.707106781186547,0.));
#1624=DIRECTION('',(-1.,0.,0.));
#1625=DIRECTION('',(-0.707106781186547,-0.707106781186548,0.));
#1626=DIRECTION('',(-1.48029736616687E-15,-1.,0.));
#1627=DIRECTION('',(1.,5.84327907697451E-16,0.));
#1628=DIRECTION('',(0.,-1.,0.));
#1629=DIRECTION('',(-1.,2.77555756156289E-15,0.));
#1630=DIRECTION('',(0.,-1.,0.));
#1631=DIRECTION('',(-1.,-2.41352831440251E-16,0.));
#1632=DIRECTION('center_axis',(0.,0.,1.));
#1633=DIRECTION('ref_axis',(0.707106781186544,0.707106781186551,0.));
#1634=DIRECTION('',(0.,1.,0.));
#1635=DIRECTION('',(1.,0.,0.));
#1636=DIRECTION('',(0.,1.,0.));
#1637=DIRECTION('',(1.,0.,0.));
#1638=DIRECTION('',(0.,-1.,0.));
#1639=DIRECTION('',(1.,0.,0.));
#1640=DIRECTION('',(0.707106781186548,0.707106781186548,0.));
#1641=DIRECTION('',(0.,1.,0.));
#1642=DIRECTION('',(-0.707106781186548,0.707106781186548,0.));
#1643=DIRECTION('',(-1.,0.,0.));
#1644=DIRECTION('',(0.,-1.,0.));
#1645=DIRECTION('',(-1.,0.,0.));
#1646=DIRECTION('',(0.,1.,0.));
#1647=DIRECTION('',(-1.,0.,0.));
#1648=DIRECTION('',(0.,1.,0.));
#1649=DIRECTION('center_axis',(0.,0.,1.));
#1650=DIRECTION('ref_axis',(0.707106781186548,-0.707106781186548,0.));
#1651=DIRECTION('',(1.,-2.41352831440251E-16,0.));
#1652=DIRECTION('',(0.,-1.,0.));
#1653=DIRECTION('',(1.,2.77555756156289E-15,0.));
#1654=DIRECTION('',(0.,-1.,0.));
#1655=DIRECTION('',(-1.,5.84327907697451E-16,0.));
#1656=DIRECTION('',(-5.32280297060666E-16,-1.,0.));
#1657=DIRECTION('',(0.707106781186547,-0.707106781186548,0.));
#1658=DIRECTION('',(1.,0.,0.));
#1659=DIRECTION('',(0.707106781186547,0.707106781186548,0.));
#1660=DIRECTION('',(1.48029736616687E-15,1.,0.));
#1661=DIRECTION('',(-1.,-5.84327907697451E-16,0.));
#1662=DIRECTION('',(0.,1.,0.));
#1663=DIRECTION('',(1.,-2.77555756156289E-15,0.));
#1664=DIRECTION('',(0.,1.,0.));
#1665=DIRECTION('center_axis',(0.,0.,1.));
#1666=DIRECTION('ref_axis',(-1.,0.,0.));
#1667=DIRECTION('center_axis',(0.,0.,1.));
#1668=DIRECTION('ref_axis',(-1.,0.,0.));
#1669=DIRECTION('center_axis',(0.,0.,1.));
#1670=DIRECTION('ref_axis',(-1.,0.,0.));
#1671=DIRECTION('center_axis',(0.,0.,1.));
#1672=DIRECTION('ref_axis',(-1.,0.,0.));
#1673=DIRECTION('center_axis',(0.,0.,1.));
#1674=DIRECTION('ref_axis',(-1.,0.,0.));
#1675=DIRECTION('center_axis',(0.,0.,1.));
#1676=DIRECTION('ref_axis',(0.707106781186548,-0.707106781186548,0.));
#1677=DIRECTION('center_axis',(0.,0.,-1.));
#1678=DIRECTION('ref_axis',(0.707106781186548,-0.707106781186548,0.));
#1679=DIRECTION('',(0.,0.,-1.));
#1680=DIRECTION('',(0.,0.,1.));
#1681=DIRECTION('center_axis',(1.,0.,0.));
#1682=DIRECTION('ref_axis',(0.,1.,0.));
#1683=DIRECTION('',(0.,0.,1.));
#1684=DIRECTION('',(0.,1.,0.));
#1685=DIRECTION('center_axis',(0.,0.,1.));
#1686=DIRECTION('ref_axis',(-0.707106781186548,0.707106781186548,0.));
#1687=DIRECTION('center_axis',(0.,0.,-1.));
#1688=DIRECTION('ref_axis',(-0.707106781186548,0.707106781186548,0.));
#1689=DIRECTION('',(0.,0.,-1.));
#1690=DIRECTION('',(0.,0.,1.));
#1691=DIRECTION('center_axis',(-1.,0.,0.));
#1692=DIRECTION('ref_axis',(0.,-1.,0.));
#1693=DIRECTION('',(0.,0.,1.));
#1694=DIRECTION('',(0.,-1.,0.));
#1695=DIRECTION('center_axis',(0.,0.,1.));
#1696=DIRECTION('ref_axis',(0.707106781186544,0.707106781186551,0.));
#1697=DIRECTION('center_axis',(0.,0.,-1.));
#1698=DIRECTION('ref_axis',(0.707106781186544,0.707106781186551,0.));
#1699=DIRECTION('',(0.,0.,-1.));
#1700=DIRECTION('',(0.,0.,1.));
#1701=DIRECTION('center_axis',(1.,0.,0.));
#1702=DIRECTION('ref_axis',(0.,1.,0.));
#1703=DIRECTION('',(0.,1.,0.));
#1704=DIRECTION('',(0.,0.,1.));
#1705=DIRECTION('center_axis',(0.,0.,1.));
#1706=DIRECTION('ref_axis',(-1.,0.,0.));
#1707=DIRECTION('',(0.,0.,1.));
#1708=DIRECTION('center_axis',(0.,0.,-1.));
#1709=DIRECTION('ref_axis',(-1.,0.,0.));
#1710=DIRECTION('center_axis',(0.,0.,1.));
#1711=DIRECTION('ref_axis',(-1.,0.,0.));
#1712=DIRECTION('',(0.,0.,1.));
#1713=DIRECTION('center_axis',(0.,0.,-1.));
#1714=DIRECTION('ref_axis',(-1.,0.,0.));
#1715=DIRECTION('center_axis',(0.,0.,1.));
#1716=DIRECTION('ref_axis',(-1.,0.,0.));
#1717=DIRECTION('',(0.,0.,1.));
#1718=DIRECTION('center_axis',(0.,0.,-1.));
#1719=DIRECTION('ref_axis',(-1.,0.,0.));
#1720=DIRECTION('center_axis',(0.,0.,1.));
#1721=DIRECTION('ref_axis',(-1.,0.,0.));
#1722=DIRECTION('',(0.,0.,1.));
#1723=DIRECTION('center_axis',(0.,0.,-1.));
#1724=DIRECTION('ref_axis',(-1.,0.,0.));
#1725=DIRECTION('center_axis',(0.,0.,1.));
#1726=DIRECTION('ref_axis',(-1.,0.,0.));
#1727=DIRECTION('',(0.,0.,1.));
#1728=DIRECTION('center_axis',(0.,0.,-1.));
#1729=DIRECTION('ref_axis',(-1.,0.,0.));
#1730=DIRECTION('center_axis',(2.41352831440251E-16,1.,0.));
#1731=DIRECTION('ref_axis',(-1.,2.41352831440251E-16,0.));
#1732=DIRECTION('',(-1.,2.41352831440251E-16,0.));
#1733=DIRECTION('',(0.,0.,1.));
#1734=DIRECTION('center_axis',(1.,0.,0.));
#1735=DIRECTION('ref_axis',(0.,1.,0.));
#1736=DIRECTION('',(0.,1.,0.));
#1737=DIRECTION('',(0.,0.,1.));
#1738=DIRECTION('center_axis',(-2.77555756156289E-15,1.,0.));
#1739=DIRECTION('ref_axis',(-1.,-2.77555756156289E-15,0.));
#1740=DIRECTION('',(-1.,-2.77555756156289E-15,0.));
#1741=DIRECTION('',(0.,0.,1.));
#1742=DIRECTION('center_axis',(1.,0.,0.));
#1743=DIRECTION('ref_axis',(0.,1.,0.));
#1744=DIRECTION('',(0.,1.,0.));
#1745=DIRECTION('',(0.,0.,1.));
#1746=DIRECTION('center_axis',(-5.84327907697451E-16,-1.,0.));
#1747=DIRECTION('ref_axis',(1.,-5.84327907697451E-16,0.));
#1748=DIRECTION('',(1.,-5.84327907697451E-16,0.));
#1749=DIRECTION('',(0.,0.,1.));
#1750=DIRECTION('center_axis',(1.,-5.32280297060666E-16,0.));
#1751=DIRECTION('ref_axis',(5.32280297060666E-16,1.,0.));
#1752=DIRECTION('',(5.32280297060666E-16,1.,0.));
#1753=DIRECTION('',(0.,0.,1.));
#1754=DIRECTION('center_axis',(0.707106781186547,0.707106781186548,0.));
#1755=DIRECTION('ref_axis',(-0.707106781186548,0.707106781186547,0.));
#1756=DIRECTION('',(-0.707106781186548,0.707106781186547,0.));
#1757=DIRECTION('',(0.,0.,1.));
#1758=DIRECTION('center_axis',(0.,1.,0.));
#1759=DIRECTION('ref_axis',(-1.,0.,0.));
#1760=DIRECTION('',(-1.,0.,0.));
#1761=DIRECTION('',(0.,0.,1.));
#1762=DIRECTION('center_axis',(-0.707106781186548,0.707106781186547,0.));
#1763=DIRECTION('ref_axis',(-0.707106781186547,-0.707106781186548,0.));
#1764=DIRECTION('',(-0.707106781186547,-0.707106781186548,0.));
#1765=DIRECTION('',(0.,0.,1.));
#1766=DIRECTION('center_axis',(-1.,1.48029736616687E-15,0.));
#1767=DIRECTION('ref_axis',(-1.48029736616687E-15,-1.,0.));
#1768=DIRECTION('',(-1.48029736616687E-15,-1.,0.));
#1769=DIRECTION('',(0.,0.,1.));
#1770=DIRECTION('center_axis',(5.84327907697451E-16,-1.,0.));
#1771=DIRECTION('ref_axis',(1.,5.84327907697451E-16,0.));
#1772=DIRECTION('',(1.,5.84327907697451E-16,0.));
#1773=DIRECTION('',(0.,0.,1.));
#1774=DIRECTION('center_axis',(-1.,0.,0.));
#1775=DIRECTION('ref_axis',(0.,-1.,0.));
#1776=DIRECTION('',(0.,-1.,0.));
#1777=DIRECTION('',(0.,0.,1.));
#1778=DIRECTION('center_axis',(2.77555756156289E-15,1.,0.));
#1779=DIRECTION('ref_axis',(-1.,2.77555756156289E-15,0.));
#1780=DIRECTION('',(-1.,2.77555756156289E-15,0.));
#1781=DIRECTION('',(0.,0.,1.));
#1782=DIRECTION('center_axis',(-1.,0.,0.));
#1783=DIRECTION('ref_axis',(0.,-1.,0.));
#1784=DIRECTION('',(0.,-1.,0.));
#1785=DIRECTION('',(0.,0.,1.));
#1786=DIRECTION('center_axis',(-2.41352831440251E-16,1.,0.));
#1787=DIRECTION('ref_axis',(-1.,-2.41352831440251E-16,0.));
#1788=DIRECTION('',(-1.,-2.41352831440251E-16,0.));
#1789=DIRECTION('center_axis',(0.,-1.,0.));
#1790=DIRECTION('ref_axis',(1.,0.,0.));
#1791=DIRECTION('',(1.,0.,0.));
#1792=DIRECTION('',(0.,0.,1.));
#1793=DIRECTION('center_axis',(1.,0.,0.));
#1794=DIRECTION('ref_axis',(0.,1.,0.));
#1795=DIRECTION('',(0.,1.,0.));
#1796=DIRECTION('',(0.,0.,1.));
#1797=DIRECTION('center_axis',(0.,-1.,0.));
#1798=DIRECTION('ref_axis',(1.,0.,0.));
#1799=DIRECTION('',(1.,0.,0.));
#1800=DIRECTION('',(0.,0.,1.));
#1801=DIRECTION('center_axis',(-1.,0.,0.));
#1802=DIRECTION('ref_axis',(0.,-1.,0.));
#1803=DIRECTION('',(0.,-1.,0.));
#1804=DIRECTION('',(0.,0.,1.));
#1805=DIRECTION('center_axis',(0.,-1.,0.));
#1806=DIRECTION('ref_axis',(1.,0.,0.));
#1807=DIRECTION('',(1.,0.,0.));
#1808=DIRECTION('',(0.,0.,1.));
#1809=DIRECTION('center_axis',(0.707106781186548,-0.707106781186548,0.));
#1810=DIRECTION('ref_axis',(0.707106781186548,0.707106781186548,0.));
#1811=DIRECTION('',(0.707106781186548,0.707106781186548,0.));
#1812=DIRECTION('',(0.,0.,1.));
#1813=DIRECTION('center_axis',(1.,0.,0.));
#1814=DIRECTION('ref_axis',(0.,1.,0.));
#1815=DIRECTION('',(0.,1.,0.));
#1816=DIRECTION('',(0.,0.,1.));
#1817=DIRECTION('center_axis',(0.707106781186548,0.707106781186548,0.));
#1818=DIRECTION('ref_axis',(-0.707106781186548,0.707106781186548,0.));
#1819=DIRECTION('',(-0.707106781186548,0.707106781186548,0.));
#1820=DIRECTION('',(0.,0.,1.));
#1821=DIRECTION('center_axis',(0.,1.,0.));
#1822=DIRECTION('ref_axis',(-1.,0.,0.));
#1823=DIRECTION('',(-1.,0.,0.));
#1824=DIRECTION('',(0.,0.,1.));
#1825=DIRECTION('center_axis',(-1.,0.,0.));
#1826=DIRECTION('ref_axis',(0.,-1.,0.));
#1827=DIRECTION('',(0.,-1.,0.));
#1828=DIRECTION('',(0.,0.,1.));
#1829=DIRECTION('center_axis',(0.,1.,0.));
#1830=DIRECTION('ref_axis',(-1.,0.,0.));
#1831=DIRECTION('',(-1.,0.,0.));
#1832=DIRECTION('',(0.,0.,1.));
#1833=DIRECTION('center_axis',(1.,0.,0.));
#1834=DIRECTION('ref_axis',(0.,1.,0.));
#1835=DIRECTION('',(0.,1.,0.));
#1836=DIRECTION('',(0.,0.,1.));
#1837=DIRECTION('center_axis',(0.,1.,0.));
#1838=DIRECTION('ref_axis',(-1.,0.,0.));
#1839=DIRECTION('',(-1.,0.,0.));
#1840=DIRECTION('center_axis',(-2.41352831440251E-16,-1.,0.));
#1841=DIRECTION('ref_axis',(1.,-2.41352831440251E-16,0.));
#1842=DIRECTION('',(1.,-2.41352831440251E-16,0.));
#1843=DIRECTION('',(0.,0.,1.));
#1844=DIRECTION('center_axis',(-1.,0.,0.));
#1845=DIRECTION('ref_axis',(0.,-1.,0.));
#1846=DIRECTION('',(0.,-1.,0.));
#1847=DIRECTION('',(0.,0.,1.));
#1848=DIRECTION('center_axis',(2.77555756156289E-15,-1.,0.));
#1849=DIRECTION('ref_axis',(1.,2.77555756156289E-15,0.));
#1850=DIRECTION('',(1.,2.77555756156289E-15,0.));
#1851=DIRECTION('',(0.,0.,1.));
#1852=DIRECTION('center_axis',(-1.,0.,0.));
#1853=DIRECTION('ref_axis',(0.,-1.,0.));
#1854=DIRECTION('',(0.,-1.,0.));
#1855=DIRECTION('',(0.,0.,1.));
#1856=DIRECTION('center_axis',(5.84327907697451E-16,1.,0.));
#1857=DIRECTION('ref_axis',(-1.,5.84327907697451E-16,0.));
#1858=DIRECTION('',(-1.,5.84327907697451E-16,0.));
#1859=DIRECTION('',(0.,0.,1.));
#1860=DIRECTION('center_axis',(-1.,5.32280297060666E-16,0.));
#1861=DIRECTION('ref_axis',(-5.32280297060666E-16,-1.,0.));
#1862=DIRECTION('',(-5.32280297060666E-16,-1.,0.));
#1863=DIRECTION('',(0.,0.,1.));
#1864=DIRECTION('center_axis',(-0.707106781186548,-0.707106781186547,0.));
#1865=DIRECTION('ref_axis',(0.707106781186547,-0.707106781186548,0.));
#1866=DIRECTION('',(0.707106781186547,-0.707106781186548,0.));
#1867=DIRECTION('',(0.,0.,1.));
#1868=DIRECTION('center_axis',(0.,-1.,0.));
#1869=DIRECTION('ref_axis',(1.,0.,0.));
#1870=DIRECTION('',(1.,0.,0.));
#1871=DIRECTION('',(0.,0.,1.));
#1872=DIRECTION('center_axis',(0.707106781186548,-0.707106781186547,0.));
#1873=DIRECTION('ref_axis',(0.707106781186547,0.707106781186548,0.));
#1874=DIRECTION('',(0.707106781186547,0.707106781186548,0.));
#1875=DIRECTION('',(0.,0.,1.));
#1876=DIRECTION('center_axis',(1.,-1.48029736616687E-15,0.));
#1877=DIRECTION('ref_axis',(1.48029736616687E-15,1.,0.));
#1878=DIRECTION('',(1.48029736616687E-15,1.,0.));
#1879=DIRECTION('',(0.,0.,1.));
#1880=DIRECTION('center_axis',(-5.84327907697451E-16,1.,0.));
#1881=DIRECTION('ref_axis',(-1.,-5.84327907697451E-16,0.));
#1882=DIRECTION('',(-1.,-5.84327907697451E-16,0.));
#1883=DIRECTION('',(0.,0.,1.));
#1884=DIRECTION('center_axis',(1.,0.,0.));
#1885=DIRECTION('ref_axis',(0.,1.,0.));
#1886=DIRECTION('',(0.,1.,0.));
#1887=DIRECTION('',(0.,0.,1.));
#1888=DIRECTION('center_axis',(-2.77555756156289E-15,-1.,0.));
#1889=DIRECTION('ref_axis',(1.,-2.77555756156289E-15,0.));
#1890=DIRECTION('',(1.,-2.77555756156289E-15,0.));
#1891=DIRECTION('',(0.,0.,1.));
#1892=DIRECTION('center_axis',(1.,0.,0.));
#1893=DIRECTION('ref_axis',(0.,1.,0.));
#1894=DIRECTION('',(0.,1.,0.));
#1895=DIRECTION('center_axis',(-1.,0.,0.));
#1896=DIRECTION('ref_axis',(0.,-1.,0.));
#1897=DIRECTION('',(0.,-1.,0.));
#1898=DIRECTION('',(0.,0.,1.));
#1899=DIRECTION('center_axis',(0.,1.,0.));
#1900=DIRECTION('ref_axis',(-1.,0.,0.));
#1901=DIRECTION('',(-1.,0.,0.));
#1902=DIRECTION('',(0.,0.,1.));
#1903=DIRECTION('center_axis',(-1.,0.,0.));
#1904=DIRECTION('ref_axis',(0.,-1.,0.));
#1905=DIRECTION('',(0.,-1.,0.));
#1906=DIRECTION('',(0.,0.,1.));
#1907=DIRECTION('center_axis',(0.,1.,0.));
#1908=DIRECTION('ref_axis',(-1.,0.,0.));
#1909=DIRECTION('',(-1.,0.,0.));
#1910=DIRECTION('',(0.,0.,1.));
#1911=DIRECTION('center_axis',(1.,0.,0.));
#1912=DIRECTION('ref_axis',(0.,1.,0.));
#1913=DIRECTION('',(0.,1.,0.));
#1914=DIRECTION('',(0.,0.,1.));
#1915=DIRECTION('center_axis',(0.,1.,0.));
#1916=DIRECTION('ref_axis',(-1.,0.,0.));
#1917=DIRECTION('',(-1.,0.,0.));
#1918=DIRECTION('',(0.,0.,1.));
#1919=DIRECTION('center_axis',(-0.707106781186548,0.707106781186548,0.));
#1920=DIRECTION('ref_axis',(-0.707106781186548,-0.707106781186548,0.));
#1921=DIRECTION('',(-0.707106781186548,-0.707106781186548,0.));
#1922=DIRECTION('',(0.,0.,1.));
#1923=DIRECTION('center_axis',(-1.,0.,0.));
#1924=DIRECTION('ref_axis',(0.,-1.,0.));
#1925=DIRECTION('',(0.,-1.,0.));
#1926=DIRECTION('',(0.,0.,1.));
#1927=DIRECTION('center_axis',(-0.707106781186547,-0.707106781186548,0.));
#1928=DIRECTION('ref_axis',(0.707106781186548,-0.707106781186547,0.));
#1929=DIRECTION('',(0.707106781186548,-0.707106781186547,0.));
#1930=DIRECTION('',(0.,0.,1.));
#1931=DIRECTION('center_axis',(-3.11792899483357E-16,-1.,0.));
#1932=DIRECTION('ref_axis',(1.,-3.11792899483357E-16,0.));
#1933=DIRECTION('',(1.,-3.11792899483357E-16,0.));
#1934=DIRECTION('',(0.,0.,1.));
#1935=DIRECTION('center_axis',(1.,0.,0.));
#1936=DIRECTION('ref_axis',(0.,1.,0.));
#1937=DIRECTION('',(0.,1.,0.));
#1938=DIRECTION('',(0.,0.,1.));
#1939=DIRECTION('center_axis',(0.,-1.,0.));
#1940=DIRECTION('ref_axis',(1.,0.,0.));
#1941=DIRECTION('',(1.,0.,0.));
#1942=DIRECTION('',(0.,0.,1.));
#1943=DIRECTION('center_axis',(-1.,0.,0.));
#1944=DIRECTION('ref_axis',(0.,-1.,0.));
#1945=DIRECTION('',(0.,-1.,0.));
#1946=DIRECTION('',(0.,0.,1.));
#1947=DIRECTION('center_axis',(0.,-1.,0.));
#1948=DIRECTION('ref_axis',(1.,0.,0.));
#1949=DIRECTION('',(1.,0.,0.));
#1950=DIRECTION('center_axis',(0.,0.,1.));
#1951=DIRECTION('ref_axis',(1.,0.,0.));
#1952=CARTESIAN_POINT('',(0.,0.,0.));
#1953=CARTESIAN_POINT('Origin',(-14.5,-14.5,0.));
#1954=CARTESIAN_POINT('',(-14.5,-15.,300.));
#1955=CARTESIAN_POINT('',(-15.,-14.5,300.));
#1956=CARTESIAN_POINT('Origin',(-14.5,-14.5,300.));
#1957=CARTESIAN_POINT('',(-15.,-14.5,0.));
#1958=CARTESIAN_POINT('',(-15.,-14.5,0.));
#1959=CARTESIAN_POINT('',(-14.5,-15.,0.));
#1960=CARTESIAN_POINT('Origin',(-14.5,-14.5,0.));
#1961=CARTESIAN_POINT('',(-14.5,-15.,0.));
#1962=CARTESIAN_POINT('Origin',(-15.,-15.,0.));
#1963=CARTESIAN_POINT('',(-5.8,-15.,0.));
#1964=CARTESIAN_POINT('',(-15.,-15.,0.));
#1965=CARTESIAN_POINT('',(-5.8,-15.,300.));
#1966=CARTESIAN_POINT('',(-5.8,-15.,0.));
#1967=CARTESIAN_POINT('',(-15.,-15.,300.));
#1968=CARTESIAN_POINT('Origin',(0.00217906822380397,-0.00285183637542449,
0.));
#1969=CARTESIAN_POINT('',(-15.,-5.8,0.));
#1970=CARTESIAN_POINT('',(-15.,-5.8,0.));
#1971=CARTESIAN_POINT('',(-14.,-5.8,0.));
#1972=CARTESIAN_POINT('',(-14.,-5.8,0.));
#1973=CARTESIAN_POINT('',(-14.,-4.2,0.));
#1974=CARTESIAN_POINT('',(-14.,-4.2,0.));
#1975=CARTESIAN_POINT('',(-13.,-4.2,0.));
#1976=CARTESIAN_POINT('',(-13.,-4.2,0.));
#1977=CARTESIAN_POINT('',(-13.,-8.,0.));
#1978=CARTESIAN_POINT('',(-13.,-8.,0.));
#1979=CARTESIAN_POINT('',(-9.4142135623731,-8.,0.));
#1980=CARTESIAN_POINT('',(-9.4142135623731,-8.,0.));
#1981=CARTESIAN_POINT('',(-5.85,-4.43578643762691,0.));
#1982=CARTESIAN_POINT('',(-5.85,-4.43578643762691,0.));
#1983=CARTESIAN_POINT('',(-5.85,4.38592813457582,0.));
#1984=CARTESIAN_POINT('',(-5.85,4.38592813457582,0.));
#1985=CARTESIAN_POINT('',(-9.43922928820763,7.97515742278345,0.));
#1986=CARTESIAN_POINT('',(-9.43922928820763,7.97515742278345,0.));
#1987=CARTESIAN_POINT('',(-13.,7.97515742278345,0.));
#1988=CARTESIAN_POINT('',(-13.,7.97515742278345,0.));
#1989=CARTESIAN_POINT('',(-13.,4.2,0.));
#1990=CARTESIAN_POINT('',(-13.,4.2,0.));
#1991=CARTESIAN_POINT('',(-14.,4.2,0.));
#1992=CARTESIAN_POINT('',(-14.,4.2,0.));
#1993=CARTESIAN_POINT('',(-14.,5.8,0.));
#1994=CARTESIAN_POINT('',(-14.,5.8,0.));
#1995=CARTESIAN_POINT('',(-15.,5.8,0.));
#1996=CARTESIAN_POINT('',(-15.,5.8,0.));
#1997=CARTESIAN_POINT('',(-15.,14.5,0.));
#1998=CARTESIAN_POINT('',(-15.,15.,0.));
#1999=CARTESIAN_POINT('',(-14.5,15.,0.));
#2000=CARTESIAN_POINT('Origin',(-14.5,14.5,0.));
#2001=CARTESIAN_POINT('',(-5.8,15.,0.));
#2002=CARTESIAN_POINT('',(-5.8,15.,0.));
#2003=CARTESIAN_POINT('',(-5.8,14.,0.));
#2004=CARTESIAN_POINT('',(-5.8,14.,0.));
#2005=CARTESIAN_POINT('',(-4.2,14.,0.));
#2006=CARTESIAN_POINT('',(-4.2,14.,0.));
#2007=CARTESIAN_POINT('',(-4.2,13.,0.));
#2008=CARTESIAN_POINT('',(-4.2,13.,0.));
#2009=CARTESIAN_POINT('',(-8.,13.,0.));
#2010=CARTESIAN_POINT('',(-8.,13.,0.));
#2011=CARTESIAN_POINT('',(-8.,9.4142135623731,0.));
#2012=CARTESIAN_POINT('',(-8.,9.4142135623731,0.));
#2013=CARTESIAN_POINT('',(-4.4357864376269,5.85,0.));
#2014=CARTESIAN_POINT('',(-4.4357864376269,5.85,0.));
#2015=CARTESIAN_POINT('',(4.4357864376269,5.85,0.));
#2016=CARTESIAN_POINT('',(4.43578643762691,5.85,0.));
#2017=CARTESIAN_POINT('',(8.,9.4142135623731,0.));
#2018=CARTESIAN_POINT('',(8.,9.4142135623731,0.));
#2019=CARTESIAN_POINT('',(8.,13.,0.));
#2020=CARTESIAN_POINT('',(8.,13.,0.));
#2021=CARTESIAN_POINT('',(4.2,13.,0.));
#2022=CARTESIAN_POINT('',(4.2,13.,0.));
#2023=CARTESIAN_POINT('',(4.2,14.,0.));
#2024=CARTESIAN_POINT('',(4.2,14.,0.));
#2025=CARTESIAN_POINT('',(5.8,14.,0.));
#2026=CARTESIAN_POINT('',(5.8,14.,0.));
#2027=CARTESIAN_POINT('',(5.8,15.,0.));
#2028=CARTESIAN_POINT('',(5.8,15.,0.));
#2029=CARTESIAN_POINT('',(14.5,15.,0.));
#2030=CARTESIAN_POINT('',(15.,15.,0.));
#2031=CARTESIAN_POINT('',(15.,14.5,0.));
#2032=CARTESIAN_POINT('Origin',(14.5,14.5,0.));
#2033=CARTESIAN_POINT('',(15.,5.8,0.));
#2034=CARTESIAN_POINT('',(15.,5.8,0.));
#2035=CARTESIAN_POINT('',(14.,5.8,0.));
#2036=CARTESIAN_POINT('',(14.,5.8,0.));
#2037=CARTESIAN_POINT('',(14.,4.2,0.));
#2038=CARTESIAN_POINT('',(14.,4.2,0.));
#2039=CARTESIAN_POINT('',(13.,4.2,0.));
#2040=CARTESIAN_POINT('',(13.,4.2,0.));
#2041=CARTESIAN_POINT('',(13.,8.,0.));
#2042=CARTESIAN_POINT('',(13.,8.,0.));
#2043=CARTESIAN_POINT('',(9.4142135623731,8.,0.));
#2044=CARTESIAN_POINT('',(9.4142135623731,8.,0.));
#2045=CARTESIAN_POINT('',(5.85,4.43578643762691,0.));
#2046=CARTESIAN_POINT('',(5.85,4.43578643762691,0.));
#2047=CARTESIAN_POINT('',(5.85,-4.43578643762691,0.));
#2048=CARTESIAN_POINT('',(5.85,-4.43578643762691,0.));
#2049=CARTESIAN_POINT('',(9.4142135623731,-8.,0.));
#2050=CARTESIAN_POINT('',(9.4142135623731,-8.,0.));
#2051=CARTESIAN_POINT('',(13.,-8.,0.));
#2052=CARTESIAN_POINT('',(13.,-8.,0.));
#2053=CARTESIAN_POINT('',(13.,-4.2,0.));
#2054=CARTESIAN_POINT('',(13.,-4.2,0.));
#2055=CARTESIAN_POINT('',(14.,-4.2,0.));
#2056=CARTESIAN_POINT('',(14.,-4.2,0.));
#2057=CARTESIAN_POINT('',(14.,-5.8,0.));
#2058=CARTESIAN_POINT('',(14.,-5.8,0.));
#2059=CARTESIAN_POINT('',(15.,-5.8,0.));
#2060=CARTESIAN_POINT('',(15.,-5.8,0.));
#2061=CARTESIAN_POINT('',(15.,-14.5,0.));
#2062=CARTESIAN_POINT('',(15.,-15.,0.));
#2063=CARTESIAN_POINT('',(14.5,-15.,0.));
#2064=CARTESIAN_POINT('Origin',(14.5,-14.5,0.));
#2065=CARTESIAN_POINT('',(5.8,-15.,0.));
#2066=CARTESIAN_POINT('',(5.8,-15.,0.));
#2067=CARTESIAN_POINT('',(5.8,-14.,0.));
#2068=CARTESIAN_POINT('',(5.8,-14.,0.));
#2069=CARTESIAN_POINT('',(4.2,-14.,0.));
#2070=CARTESIAN_POINT('',(4.2,-14.,0.));
#2071=CARTESIAN_POINT('',(4.2,-13.,0.));
#2072=CARTESIAN_POINT('',(4.2,-13.,0.));
#2073=CARTESIAN_POINT('',(8.,-13.,0.));
#2074=CARTESIAN_POINT('',(8.,-13.,0.));
#2075=CARTESIAN_POINT('',(8.,-9.4142135623731,0.));
#2076=CARTESIAN_POINT('',(8.,-9.4142135623731,0.));
#2077=CARTESIAN_POINT('',(4.43578643762691,-5.85,0.));
#2078=CARTESIAN_POINT('',(4.43578643762691,-5.85,0.));
#2079=CARTESIAN_POINT('',(-4.4357864376269,-5.85,0.));
#2080=CARTESIAN_POINT('',(-4.4357864376269,-5.85,0.));
#2081=CARTESIAN_POINT('',(-8.,-9.4142135623731,0.));
#2082=CARTESIAN_POINT('',(-8.,-9.4142135623731,0.));
#2083=CARTESIAN_POINT('',(-8.,-13.,0.));
#2084=CARTESIAN_POINT('',(-8.,-13.,0.));
#2085=CARTESIAN_POINT('',(-4.2,-13.,0.));
#2086=CARTESIAN_POINT('',(-4.2,-13.,0.));
#2087=CARTESIAN_POINT('',(-4.2,-14.,0.));
#2088=CARTESIAN_POINT('',(-4.2,-14.,0.));
#2089=CARTESIAN_POINT('',(-5.8,-14.,0.));
#2090=CARTESIAN_POINT('',(-5.8,-14.,0.));
#2091=CARTESIAN_POINT('',(-5.8,-15.,0.));
#2092=CARTESIAN_POINT('',(3.25,3.9801020972289E-16,0.));
#2093=CARTESIAN_POINT('Origin',(0.,0.,0.));
#2094=CARTESIAN_POINT('',(13.,-11.5,0.));
#2095=CARTESIAN_POINT('Origin',(11.5,-11.5,0.));
#2096=CARTESIAN_POINT('',(-10.,-11.5,0.));
#2097=CARTESIAN_POINT('Origin',(-11.5,-11.5,0.));
#2098=CARTESIAN_POINT('',(13.,11.5,0.));
#2099=CARTESIAN_POINT('Origin',(11.5,11.5,0.));
#2100=CARTESIAN_POINT('',(-10.,11.5,0.));
#2101=CARTESIAN_POINT('Origin',(-11.5,11.5,0.));
#2102=CARTESIAN_POINT('Origin',(14.5,-14.5,0.));
#2103=CARTESIAN_POINT('',(15.,-14.5,300.));
#2104=CARTESIAN_POINT('',(14.5,-15.,300.));
#2105=CARTESIAN_POINT('Origin',(14.5,-14.5,300.));
#2106=CARTESIAN_POINT('',(14.5,-15.,0.));
#2107=CARTESIAN_POINT('',(15.,-14.5,0.));
#2108=CARTESIAN_POINT('Origin',(15.,-15.,0.));
#2109=CARTESIAN_POINT('',(15.,-5.8,300.));
#2110=CARTESIAN_POINT('',(15.,-5.8,0.));
#2111=CARTESIAN_POINT('',(15.,-15.,300.));
#2112=CARTESIAN_POINT('Origin',(-14.5,14.5,0.));
#2113=CARTESIAN_POINT('',(-15.,14.5,300.));
#2114=CARTESIAN_POINT('',(-14.5,15.,300.));
#2115=CARTESIAN_POINT('Origin',(-14.5,14.5,300.));
#2116=CARTESIAN_POINT('',(-14.5,15.,0.));
#2117=CARTESIAN_POINT('',(-15.,14.5,0.));
#2118=CARTESIAN_POINT('Origin',(-15.,15.,0.));
#2119=CARTESIAN_POINT('',(-15.,5.8,300.));
#2120=CARTESIAN_POINT('',(-15.,5.8,0.));
#2121=CARTESIAN_POINT('',(-15.,15.,300.));
#2122=CARTESIAN_POINT('Origin',(14.5,14.5,0.));
#2123=CARTESIAN_POINT('',(14.5,15.,300.));
#2124=CARTESIAN_POINT('',(15.,14.5,300.));
#2125=CARTESIAN_POINT('Origin',(14.5,14.5,300.));
#2126=CARTESIAN_POINT('',(15.,14.5,0.));
#2127=CARTESIAN_POINT('',(14.5,15.,0.));
#2128=CARTESIAN_POINT('Origin',(15.,5.8,0.));
#2129=CARTESIAN_POINT('',(15.,5.8,300.));
#2130=CARTESIAN_POINT('',(15.,5.8,300.));
#2131=CARTESIAN_POINT('',(15.,5.8,0.));
#2132=CARTESIAN_POINT('Origin',(0.,0.,0.));
#2133=CARTESIAN_POINT('',(3.25,3.9801020972289E-16,300.));
#2134=CARTESIAN_POINT('',(3.25,3.9801020972289E-16,0.));
#2135=CARTESIAN_POINT('Origin',(0.,0.,300.));
#2136=CARTESIAN_POINT('Origin',(11.5,-11.5,0.));
#2137=CARTESIAN_POINT('',(13.,-11.5,300.));
#2138=CARTESIAN_POINT('',(13.,-11.5,0.));
#2139=CARTESIAN_POINT('Origin',(11.5,-11.5,300.));
#2140=CARTESIAN_POINT('Origin',(-11.5,-11.5,0.));
#2141=CARTESIAN_POINT('',(-10.,-11.5,300.));
#2142=CARTESIAN_POINT('',(-10.,-11.5,0.));
#2143=CARTESIAN_POINT('Origin',(-11.5,-11.5,300.));
#2144=CARTESIAN_POINT('Origin',(11.5,11.5,0.));
#2145=CARTESIAN_POINT('',(13.,11.5,300.));
#2146=CARTESIAN_POINT('',(13.,11.5,0.));
#2147=CARTESIAN_POINT('Origin',(11.5,11.5,300.));
#2148=CARTESIAN_POINT('Origin',(-11.5,11.5,0.));
#2149=CARTESIAN_POINT('',(-10.,11.5,300.));
#2150=CARTESIAN_POINT('',(-10.,11.5,0.));
#2151=CARTESIAN_POINT('Origin',(-11.5,11.5,300.));
#2152=CARTESIAN_POINT('Origin',(-5.8,15.,0.));
#2153=CARTESIAN_POINT('',(-5.8,15.,300.));
#2154=CARTESIAN_POINT('',(-5.8,15.,300.));
#2155=CARTESIAN_POINT('',(-5.8,15.,0.));
#2156=CARTESIAN_POINT('Origin',(-5.8,14.,0.));
#2157=CARTESIAN_POINT('',(-5.8,14.,300.));
#2158=CARTESIAN_POINT('',(-5.8,14.,300.));
#2159=CARTESIAN_POINT('',(-5.8,14.,0.));
#2160=CARTESIAN_POINT('Origin',(-4.2,14.,0.));
#2161=CARTESIAN_POINT('',(-4.2,14.,300.));
#2162=CARTESIAN_POINT('',(-4.2,14.,300.));
#2163=CARTESIAN_POINT('',(-4.2,14.,0.));
#2164=CARTESIAN_POINT('Origin',(-4.2,13.,0.));
#2165=CARTESIAN_POINT('',(-4.2,13.,300.));
#2166=CARTESIAN_POINT('',(-4.2,13.,300.));
#2167=CARTESIAN_POINT('',(-4.2,13.,0.));
#2168=CARTESIAN_POINT('Origin',(-8.,13.,0.));
#2169=CARTESIAN_POINT('',(-8.,13.,300.));
#2170=CARTESIAN_POINT('',(-8.,13.,300.));
#2171=CARTESIAN_POINT('',(-8.,13.,0.));
#2172=CARTESIAN_POINT('Origin',(-8.,9.4142135623731,0.));
#2173=CARTESIAN_POINT('',(-8.,9.4142135623731,300.));
#2174=CARTESIAN_POINT('',(-8.,9.4142135623731,300.));
#2175=CARTESIAN_POINT('',(-8.,9.4142135623731,0.));
#2176=CARTESIAN_POINT('Origin',(-4.4357864376269,5.85,0.));
#2177=CARTESIAN_POINT('',(-4.4357864376269,5.85,300.));
#2178=CARTESIAN_POINT('',(-4.4357864376269,5.85,300.));
#2179=CARTESIAN_POINT('',(-4.4357864376269,5.85,0.));
#2180=CARTESIAN_POINT('Origin',(4.4357864376269,5.85,0.));
#2181=CARTESIAN_POINT('',(4.43578643762691,5.85,300.));
#2182=CARTESIAN_POINT('',(4.43578643762691,5.85,300.));
#2183=CARTESIAN_POINT('',(4.4357864376269,5.85,0.));
#2184=CARTESIAN_POINT('Origin',(8.,9.4142135623731,0.));
#2185=CARTESIAN_POINT('',(8.,9.4142135623731,300.));
#2186=CARTESIAN_POINT('',(8.,9.4142135623731,300.));
#2187=CARTESIAN_POINT('',(8.,9.4142135623731,0.));
#2188=CARTESIAN_POINT('Origin',(8.,13.,0.));
#2189=CARTESIAN_POINT('',(8.,13.,300.));
#2190=CARTESIAN_POINT('',(8.,13.,300.));
#2191=CARTESIAN_POINT('',(8.,13.,0.));
#2192=CARTESIAN_POINT('Origin',(4.2,13.,0.));
#2193=CARTESIAN_POINT('',(4.2,13.,300.));
#2194=CARTESIAN_POINT('',(4.2,13.,300.));
#2195=CARTESIAN_POINT('',(4.2,13.,0.));
#2196=CARTESIAN_POINT('Origin',(4.2,14.,0.));
#2197=CARTESIAN_POINT('',(4.2,14.,300.));
#2198=CARTESIAN_POINT('',(4.2,14.,300.));
#2199=CARTESIAN_POINT('',(4.2,14.,0.));
#2200=CARTESIAN_POINT('Origin',(5.8,14.,0.));
#2201=CARTESIAN_POINT('',(5.8,14.,300.));
#2202=CARTESIAN_POINT('',(5.8,14.,300.));
#2203=CARTESIAN_POINT('',(5.8,14.,0.));
#2204=CARTESIAN_POINT('Origin',(5.8,15.,0.));
#2205=CARTESIAN_POINT('',(5.8,15.,300.));
#2206=CARTESIAN_POINT('',(5.8,15.,300.));
#2207=CARTESIAN_POINT('',(5.8,15.,0.));
#2208=CARTESIAN_POINT('Origin',(15.,15.,0.));
#2209=CARTESIAN_POINT('',(15.,15.,300.));
#2210=CARTESIAN_POINT('Origin',(14.,5.8,0.));
#2211=CARTESIAN_POINT('',(14.,5.8,300.));
#2212=CARTESIAN_POINT('',(14.,5.8,300.));
#2213=CARTESIAN_POINT('',(14.,5.8,0.));
#2214=CARTESIAN_POINT('Origin',(14.,4.2,0.));
#2215=CARTESIAN_POINT('',(14.,4.2,300.));
#2216=CARTESIAN_POINT('',(14.,4.2,300.));
#2217=CARTESIAN_POINT('',(14.,4.2,0.));
#2218=CARTESIAN_POINT('Origin',(13.,4.2,0.));
#2219=CARTESIAN_POINT('',(13.,4.2,300.));
#2220=CARTESIAN_POINT('',(13.,4.2,300.));
#2221=CARTESIAN_POINT('',(13.,4.2,0.));
#2222=CARTESIAN_POINT('Origin',(13.,8.,0.));
#2223=CARTESIAN_POINT('',(13.,8.,300.));
#2224=CARTESIAN_POINT('',(13.,8.,300.));
#2225=CARTESIAN_POINT('',(13.,8.,0.));
#2226=CARTESIAN_POINT('Origin',(9.4142135623731,8.,0.));
#2227=CARTESIAN_POINT('',(9.4142135623731,8.,300.));
#2228=CARTESIAN_POINT('',(9.4142135623731,8.,300.));
#2229=CARTESIAN_POINT('',(9.4142135623731,8.,0.));
#2230=CARTESIAN_POINT('Origin',(5.85,4.43578643762691,0.));
#2231=CARTESIAN_POINT('',(5.85,4.43578643762691,300.));
#2232=CARTESIAN_POINT('',(5.85,4.43578643762691,300.));
#2233=CARTESIAN_POINT('',(5.85,4.43578643762691,0.));
#2234=CARTESIAN_POINT('Origin',(5.85,-4.43578643762691,0.));
#2235=CARTESIAN_POINT('',(5.85,-4.43578643762691,300.));
#2236=CARTESIAN_POINT('',(5.85,-4.43578643762691,300.));
#2237=CARTESIAN_POINT('',(5.85,-4.43578643762691,0.));
#2238=CARTESIAN_POINT('Origin',(9.4142135623731,-8.,0.));
#2239=CARTESIAN_POINT('',(9.4142135623731,-8.,300.));
#2240=CARTESIAN_POINT('',(9.4142135623731,-8.,300.));
#2241=CARTESIAN_POINT('',(9.4142135623731,-8.,0.));
#2242=CARTESIAN_POINT('Origin',(13.,-8.,0.));
#2243=CARTESIAN_POINT('',(13.,-8.,300.));
#2244=CARTESIAN_POINT('',(13.,-8.,300.));
#2245=CARTESIAN_POINT('',(13.,-8.,0.));
#2246=CARTESIAN_POINT('Origin',(13.,-4.2,0.));
#2247=CARTESIAN_POINT('',(13.,-4.2,300.));
#2248=CARTESIAN_POINT('',(13.,-4.2,300.));
#2249=CARTESIAN_POINT('',(13.,-4.2,0.));
#2250=CARTESIAN_POINT('Origin',(14.,-4.2,0.));
#2251=CARTESIAN_POINT('',(14.,-4.2,300.));
#2252=CARTESIAN_POINT('',(14.,-4.2,300.));
#2253=CARTESIAN_POINT('',(14.,-4.2,0.));
#2254=CARTESIAN_POINT('Origin',(14.,-5.8,0.));
#2255=CARTESIAN_POINT('',(14.,-5.8,300.));
#2256=CARTESIAN_POINT('',(14.,-5.8,300.));
#2257=CARTESIAN_POINT('',(14.,-5.8,0.));
#2258=CARTESIAN_POINT('Origin',(15.,-5.8,0.));
#2259=CARTESIAN_POINT('',(15.,-5.8,300.));
#2260=CARTESIAN_POINT('Origin',(5.8,-15.,0.));
#2261=CARTESIAN_POINT('',(5.8,-15.,300.));
#2262=CARTESIAN_POINT('',(5.8,-15.,300.));
#2263=CARTESIAN_POINT('',(5.8,-15.,0.));
#2264=CARTESIAN_POINT('Origin',(5.8,-14.,0.));
#2265=CARTESIAN_POINT('',(5.8,-14.,300.));
#2266=CARTESIAN_POINT('',(5.8,-14.,300.));
#2267=CARTESIAN_POINT('',(5.8,-14.,0.));
#2268=CARTESIAN_POINT('Origin',(4.2,-14.,0.));
#2269=CARTESIAN_POINT('',(4.2,-14.,300.));
#2270=CARTESIAN_POINT('',(4.2,-14.,300.));
#2271=CARTESIAN_POINT('',(4.2,-14.,0.));
#2272=CARTESIAN_POINT('Origin',(4.2,-13.,0.));
#2273=CARTESIAN_POINT('',(4.2,-13.,300.));
#2274=CARTESIAN_POINT('',(4.2,-13.,300.));
#2275=CARTESIAN_POINT('',(4.2,-13.,0.));
#2276=CARTESIAN_POINT('Origin',(8.,-13.,0.));
#2277=CARTESIAN_POINT('',(8.,-13.,300.));
#2278=CARTESIAN_POINT('',(8.,-13.,300.));
#2279=CARTESIAN_POINT('',(8.,-13.,0.));
#2280=CARTESIAN_POINT('Origin',(8.,-9.4142135623731,0.));
#2281=CARTESIAN_POINT('',(8.,-9.4142135623731,300.));
#2282=CARTESIAN_POINT('',(8.,-9.4142135623731,300.));
#2283=CARTESIAN_POINT('',(8.,-9.4142135623731,0.));
#2284=CARTESIAN_POINT('Origin',(4.43578643762691,-5.85,0.));
#2285=CARTESIAN_POINT('',(4.43578643762691,-5.85,300.));
#2286=CARTESIAN_POINT('',(4.43578643762691,-5.85,300.));
#2287=CARTESIAN_POINT('',(4.43578643762691,-5.85,0.));
#2288=CARTESIAN_POINT('Origin',(-4.4357864376269,-5.85,0.));
#2289=CARTESIAN_POINT('',(-4.43578643762691,-5.85,300.));
#2290=CARTESIAN_POINT('',(-4.4357864376269,-5.85,300.));
#2291=CARTESIAN_POINT('',(-4.4357864376269,-5.85,0.));
#2292=CARTESIAN_POINT('Origin',(-8.,-9.4142135623731,0.));
#2293=CARTESIAN_POINT('',(-8.,-9.4142135623731,300.));
#2294=CARTESIAN_POINT('',(-8.,-9.4142135623731,300.));
#2295=CARTESIAN_POINT('',(-8.,-9.4142135623731,0.));
#2296=CARTESIAN_POINT('Origin',(-8.,-13.,0.));
#2297=CARTESIAN_POINT('',(-8.,-13.,300.));
#2298=CARTESIAN_POINT('',(-8.,-13.,300.));
#2299=CARTESIAN_POINT('',(-8.,-13.,0.));
#2300=CARTESIAN_POINT('Origin',(-4.2,-13.,0.));
#2301=CARTESIAN_POINT('',(-4.2,-13.,300.));
#2302=CARTESIAN_POINT('',(-4.2,-13.,300.));
#2303=CARTESIAN_POINT('',(-4.2,-13.,0.));
#2304=CARTESIAN_POINT('Origin',(-4.2,-14.,0.));
#2305=CARTESIAN_POINT('',(-4.2,-14.,300.));
#2306=CARTESIAN_POINT('',(-4.2,-14.,300.));
#2307=CARTESIAN_POINT('',(-4.2,-14.,0.));
#2308=CARTESIAN_POINT('Origin',(-5.8,-14.,0.));
#2309=CARTESIAN_POINT('',(-5.8,-14.,300.));
#2310=CARTESIAN_POINT('',(-5.8,-14.,300.));
#2311=CARTESIAN_POINT('',(-5.8,-14.,0.));
#2312=CARTESIAN_POINT('Origin',(-5.8,-15.,0.));
#2313=CARTESIAN_POINT('',(-5.8,-15.,300.));
#2314=CARTESIAN_POINT('Origin',(-15.,-5.8,0.));
#2315=CARTESIAN_POINT('',(-15.,-5.8,300.));
#2316=CARTESIAN_POINT('',(-15.,-5.8,300.));
#2317=CARTESIAN_POINT('',(-15.,-5.8,0.));
#2318=CARTESIAN_POINT('Origin',(-14.,-5.8,0.));
#2319=CARTESIAN_POINT('',(-14.,-5.8,300.));
#2320=CARTESIAN_POINT('',(-14.,-5.8,300.));
#2321=CARTESIAN_POINT('',(-14.,-5.8,0.));
#2322=CARTESIAN_POINT('Origin',(-14.,-4.2,0.));
#2323=CARTESIAN_POINT('',(-14.,-4.2,300.));
#2324=CARTESIAN_POINT('',(-14.,-4.2,300.));
#2325=CARTESIAN_POINT('',(-14.,-4.2,0.));
#2326=CARTESIAN_POINT('Origin',(-13.,-4.2,0.));
#2327=CARTESIAN_POINT('',(-13.,-4.2,300.));
#2328=CARTESIAN_POINT('',(-13.,-4.2,300.));
#2329=CARTESIAN_POINT('',(-13.,-4.2,0.));
#2330=CARTESIAN_POINT('Origin',(-13.,-8.,0.));
#2331=CARTESIAN_POINT('',(-13.,-8.,300.));
#2332=CARTESIAN_POINT('',(-13.,-8.,300.));
#2333=CARTESIAN_POINT('',(-13.,-8.,0.));
#2334=CARTESIAN_POINT('Origin',(-9.4142135623731,-8.,0.));
#2335=CARTESIAN_POINT('',(-9.4142135623731,-8.,300.));
#2336=CARTESIAN_POINT('',(-9.4142135623731,-8.,300.));
#2337=CARTESIAN_POINT('',(-9.4142135623731,-8.,0.));
#2338=CARTESIAN_POINT('Origin',(-5.85,-4.43578643762691,0.));
#2339=CARTESIAN_POINT('',(-5.85,-4.43578643762691,300.));
#2340=CARTESIAN_POINT('',(-5.85,-4.43578643762691,300.));
#2341=CARTESIAN_POINT('',(-5.85,-4.43578643762691,0.));
#2342=CARTESIAN_POINT('Origin',(-5.85,4.38592813457582,0.));
#2343=CARTESIAN_POINT('',(-5.85,4.38592813457582,300.));
#2344=CARTESIAN_POINT('',(-5.85,4.38592813457582,300.));
#2345=CARTESIAN_POINT('',(-5.85,4.38592813457582,0.));
#2346=CARTESIAN_POINT('Origin',(-9.43922928820763,7.97515742278345,0.));
#2347=CARTESIAN_POINT('',(-9.43922928820763,7.97515742278345,300.));
#2348=CARTESIAN_POINT('',(-9.43922928820763,7.97515742278345,300.));
#2349=CARTESIAN_POINT('',(-9.43922928820763,7.97515742278345,0.));
#2350=CARTESIAN_POINT('Origin',(-13.,7.97515742278345,0.));
#2351=CARTESIAN_POINT('',(-13.,7.97515742278345,300.));
#2352=CARTESIAN_POINT('',(-13.,7.97515742278345,300.));
#2353=CARTESIAN_POINT('',(-13.,7.97515742278345,0.));
#2354=CARTESIAN_POINT('Origin',(-13.,4.2,0.));
#2355=CARTESIAN_POINT('',(-13.,4.2,300.));
#2356=CARTESIAN_POINT('',(-13.,4.2,300.));
#2357=CARTESIAN_POINT('',(-13.,4.2,0.));
#2358=CARTESIAN_POINT('Origin',(-14.,4.2,0.));
#2359=CARTESIAN_POINT('',(-14.,4.2,300.));
#2360=CARTESIAN_POINT('',(-14.,4.2,300.));
#2361=CARTESIAN_POINT('',(-14.,4.2,0.));
#2362=CARTESIAN_POINT('Origin',(-14.,5.8,0.));
#2363=CARTESIAN_POINT('',(-14.,5.8,300.));
#2364=CARTESIAN_POINT('',(-14.,5.8,300.));
#2365=CARTESIAN_POINT('',(-14.,5.8,0.));
#2366=CARTESIAN_POINT('Origin',(-15.,5.8,0.));
#2367=CARTESIAN_POINT('',(-15.,5.8,300.));
#2368=CARTESIAN_POINT('Origin',(0.00217906822380431,-0.00285183637542374,
300.));
#2369=UNCERTAINTY_MEASURE_WITH_UNIT(LENGTH_MEASURE(0.01),#2373,
'DISTANCE_ACCURACY_VALUE',
'Maximum model space distance between geometric entities at asserted c
onnectivities');
#2370=UNCERTAINTY_MEASURE_WITH_UNIT(LENGTH_MEASURE(0.01),#2373,
'DISTANCE_ACCURACY_VALUE',
'Maximum model space distance between geometric entities at asserted c
onnectivities');
#2371=(
GEOMETRIC_REPRESENTATION_CONTEXT(3)
GLOBAL_UNCERTAINTY_ASSIGNED_CONTEXT((#2369))
GLOBAL_UNIT_ASSIGNED_CONTEXT((#2373,#2375,#2376))
REPRESENTATION_CONTEXT('','3D')
);
#2372=(
GEOMETRIC_REPRESENTATION_CONTEXT(3)
GLOBAL_UNCERTAINTY_ASSIGNED_CONTEXT((#2370))
GLOBAL_UNIT_ASSIGNED_CONTEXT((#2373,#2375,#2376))
REPRESENTATION_CONTEXT('','3D')
);
#2373=(
LENGTH_UNIT()
NAMED_UNIT(*)
SI_UNIT(.MILLI.,.METRE.)
);
#2374=(
LENGTH_UNIT()
NAMED_UNIT(*)
SI_UNIT(.CENTI.,.METRE.)
);
#2375=(
NAMED_UNIT(*)
PLANE_ANGLE_UNIT()
SI_UNIT($,.RADIAN.)
);
#2376=(
NAMED_UNIT(*)
SI_UNIT($,.STERADIAN.)
SOLID_ANGLE_UNIT()
);
#2377=SHAPE_DEFINITION_REPRESENTATION(#2378,#2379);
#2378=PRODUCT_DEFINITION_SHAPE('',$,#2381);
#2379=SHAPE_REPRESENTATION('',(#1493),#2371);
#2380=PRODUCT_DEFINITION_CONTEXT('part definition',#2385,'design');
#2381=PRODUCT_DEFINITION('Aluminium profile 30x30x850',
'Aluminium profile 30x30x300',#2382,#2380);
#2382=PRODUCT_DEFINITION_FORMATION('',$,#2387);
#2383=PRODUCT_RELATED_PRODUCT_CATEGORY('Aluminium profile 30x30x300',
'Aluminium profile 30x30x300',(#2387));
#2384=APPLICATION_PROTOCOL_DEFINITION('international standard',
'automotive_design',2009,#2385);
#2385=APPLICATION_CONTEXT(
'Core Data for Automotive Mechanical Design Process');
#2386=PRODUCT_CONTEXT('part definition',#2385,'mechanical');
#2387=PRODUCT('Aluminium profile 30x30x850',
'Aluminium profile 30x30x300',$,(#2386));
#2388=PRESENTATION_STYLE_ASSIGNMENT((#2389));
#2389=SURFACE_STYLE_USAGE(.BOTH.,#2392);
#2390=SURFACE_STYLE_RENDERING_WITH_PROPERTIES($,#2396,(#2391));
#2391=SURFACE_STYLE_TRANSPARENT(0.);
#2392=SURFACE_SIDE_STYLE('',(#2393,#2390));
#2393=SURFACE_STYLE_FILL_AREA(#2394);
#2394=FILL_AREA_STYLE('',(#2395));
#2395=FILL_AREA_STYLE_COLOUR('',#2396);
#2396=COLOUR_RGB('',0.749019607843137,0.749019607843137,0.749019607843137);
ENDSEC;
END-ISO-10303-21;
